<?xml version="1.0" encoding="utf-8"?>
<!-- Generator: Adobe Illustrator 27.8.1, SVG Export Plug-In . SVG Version: 6.00 Build 0)  -->
<svg version="1.1" id="Layer_1" xmlns="http://www.w3.org/2000/svg" xmlns:xlink="http://www.w3.org/1999/xlink" x="0px" y="0px"
	 viewBox="0 0 1200 200" style="enable-background:new 0 0 1200 200;" xml:space="preserve">
<style type="text/css">
	.st0{fill:url(#SVGID_1_);}
	.st1{opacity:0.5;fill:url(#SVGID_00000161620290793945256620000003714660681087924627_);}
	.st2{opacity:0.5;fill:url(#SVGID_00000008124609348134489120000016506559663809688982_);}
	.st3{opacity:0.5;fill:url(#SVGID_00000173854694658078580050000011248394713617835933_);}
	.st4{opacity:0.5;fill:url(#SVGID_00000016057862885905048250000000054076962965676477_);}
	.st5{opacity:0.5;fill:url(#SVGID_00000018947839314254876110000009512627245707916938_);}
	.st6{opacity:0.5;fill:url(#SVGID_00000178910282319353307950000016782611646222573240_);}
	.st7{opacity:0.5;fill:url(#SVGID_00000121270180015073759110000001996515118959713194_);}
	.st8{opacity:0.5;fill:url(#SVGID_00000020375990502002019770000006343864776188169358_);}
	.st9{opacity:0.5;fill:url(#SVGID_00000028315099867771308940000015346135147057501616_);}
	.st10{opacity:0.5;fill:url(#SVGID_00000168803337538358880170000016039038933188081085_);}
	.st11{opacity:0.5;fill:url(#SVGID_00000172441995315035685180000010157621266275792044_);}
	.st12{opacity:0.5;fill:url(#SVGID_00000183247839834886411830000010162421156398473877_);}
	.st13{opacity:0.5;fill:url(#SVGID_00000034073011859679715680000001203099826462148993_);}
	.st14{opacity:0.5;fill:url(#SVGID_00000090265456084037510820000003447723535470933900_);}
	.st15{opacity:0.5;fill:url(#SVGID_00000026865089722665270870000016273237741752154554_);}
	.st16{opacity:0.5;fill:url(#SVGID_00000181060675013680672910000010737395313801455757_);}
	.st17{opacity:0.5;fill:url(#SVGID_00000058568207467458060210000012261575055519371709_);}
	.st18{opacity:0.5;fill:url(#SVGID_00000152228103173187888780000003026340670228869506_);}
	.st19{opacity:0.5;fill:url(#SVGID_00000078757564713889828660000009763290847007672723_);}
	.st20{opacity:0.5;fill:url(#SVGID_00000009551211127588733980000011371050954113521548_);}
	.st21{opacity:0.5;fill:url(#SVGID_00000049937931414153488080000014700548638419737018_);}
	.st22{opacity:0.5;fill:url(#SVGID_00000106109932224152658120000009995919380464218553_);}
	.st23{opacity:0.5;fill:url(#SVGID_00000026123112200266934460000000866111498281857951_);}
	.st24{opacity:0.5;fill:url(#SVGID_00000086655941075680627670000015815743857604287142_);}
</style>
<linearGradient id="SVGID_1_" gradientUnits="userSpaceOnUse" x1="29.5044" y1="128.2049" x2="29.5044" y2="128.2049">
	<stop  offset="0.176" style="stop-color:#000000;stop-opacity:0.1"/>
	<stop  offset="0.4309" style="stop-color:#300A3D;stop-opacity:0.5"/>
	<stop  offset="0.6728" style="stop-color:#0F1027;stop-opacity:0.7"/>
	<stop  offset="0.973" style="stop-color:#000000"/>
</linearGradient>
<path class="st0" d="M29.5,128.2"/>
<linearGradient id="SVGID_00000016763997571258579780000000387510745979955643_" gradientUnits="userSpaceOnUse" x1="39.0307" y1="181.2421" x2="41.6974" y2="-23.2024">
	<stop  offset="0.176" style="stop-color:#000000;stop-opacity:0.1"/>
	<stop  offset="0.4309" style="stop-color:#300A3D;stop-opacity:0.5"/>
	<stop  offset="0.6728" style="stop-color:#0F1027;stop-opacity:0.7"/>
	<stop  offset="0.973" style="stop-color:#000000"/>
</linearGradient>
<path style="opacity:0.5;fill:url(#SVGID_00000016763997571258579780000000387510745979955643_);" d="M40.7,72.7
	c-24.4-0.1-27.4,25.1-27.4,25.1l0,30.7l0.3,0.3l9,0l0.5-0.3l0.1-22.4h33.4l0.2,22.1l0.3,0.6l9.5-0.3l0-31
	C61.2,71.6,40.7,72.7,40.7,72.7z M23.5,95.5c0,0,4.4-13,16.8-12.6c0,0,11.2-0.2,15.7,12.6H23.5z"/>
<linearGradient id="SVGID_00000108300375572355462180000003321478203931045256_" gradientUnits="userSpaceOnUse" x1="94.9287" y1="181.9712" x2="97.5953" y2="-22.4733">
	<stop  offset="0.176" style="stop-color:#000000;stop-opacity:0.1"/>
	<stop  offset="0.4309" style="stop-color:#300A3D;stop-opacity:0.5"/>
	<stop  offset="0.6728" style="stop-color:#0F1027;stop-opacity:0.7"/>
	<stop  offset="0.973" style="stop-color:#000000"/>
</linearGradient>
<path style="opacity:0.5;fill:url(#SVGID_00000108300375572355462180000003321478203931045256_);" d="M78.6,72.7l0.6,0.3l-0.1,40.5
	c0.7,4.2,4.9,4.9,4.9,4.9l23.8,0.1c3.8-0.2,5.1-6.2,5.1-6.2l0.1-0.5l9.6,0.1v0.6c-0.5,15.2-14.6,16.4-14.6,16.4l-24.7,0
	c-13.3-2.2-14-14.9-14-14.9V73l0.3-0.3H78.6z"/>
<linearGradient id="SVGID_00000058564826941851658720000010517957331489110199_" gradientUnits="userSpaceOnUse" x1="151.4005" y1="182.7078" x2="154.0672" y2="-21.7367">
	<stop  offset="0.176" style="stop-color:#000000;stop-opacity:0.1"/>
	<stop  offset="0.4309" style="stop-color:#300A3D;stop-opacity:0.5"/>
	<stop  offset="0.6728" style="stop-color:#0F1027;stop-opacity:0.7"/>
	<stop  offset="0.973" style="stop-color:#000000"/>
</linearGradient>
<path style="opacity:0.5;fill:url(#SVGID_00000058564826941851658720000010517957331489110199_);" d="M179.1,112.1
	c0.3-3.9-2.3-8.4-2.3-8.4c-5.1-8.1-12-8.2-12-8.2h-25.5c-15.1,3.9-13.8,16.8-13.8,16.8c1.5,16.7,15.3,16.5,15.3,16.5h37.8l0.3-0.3
	v-8.4l-0.3-0.3l-34.7,0.1c-5.7-0.1-7.7-3.8-7.7-3.8h39.4C178.2,116.1,179.1,112.1,179.1,112.1z M136.6,108c0,0,1.2-3.7,15.3-3.7
	c0,0,11.6-0.5,16.2,3.7H136.6z"/>
<linearGradient id="SVGID_00000097478068786970417450000016434847438844170415_" gradientUnits="userSpaceOnUse" x1="207.4765" y1="183.4392" x2="210.1431" y2="-21.0053">
	<stop  offset="0.176" style="stop-color:#000000;stop-opacity:0.1"/>
	<stop  offset="0.4309" style="stop-color:#300A3D;stop-opacity:0.5"/>
	<stop  offset="0.6728" style="stop-color:#0F1027;stop-opacity:0.7"/>
	<stop  offset="0.973" style="stop-color:#000000"/>
</linearGradient>
<polygon style="opacity:0.5;fill:url(#SVGID_00000097478068786970417450000016434847438844170415_);" points="181.8,95.9 
	182.1,95.5 191.1,95.5 191.4,95.9 191.4,97.7 208.4,106.4 225.4,97.7 225.4,95.9 225.7,95.5 234.7,95.5 235.1,95.9 235.1,104.2 
	219.8,112.2 235.1,119.9 235.1,128.5 234.7,128.8 225.7,128.8 225.4,128.5 225.4,126.5 208.4,117.9 191.4,126.6 191.4,128.5 
	191.1,128.8 182.1,128.8 181.8,128.4 181.8,120 197,112.2 181.8,104.4 "/>
<linearGradient id="SVGID_00000018939451256330901370000002637414724916248226_" gradientUnits="userSpaceOnUse" x1="262.4873" y1="184.1567" x2="265.154" y2="-20.2877">
	<stop  offset="0.176" style="stop-color:#000000;stop-opacity:0.1"/>
	<stop  offset="0.4309" style="stop-color:#300A3D;stop-opacity:0.5"/>
	<stop  offset="0.6728" style="stop-color:#0F1027;stop-opacity:0.7"/>
	<stop  offset="0.973" style="stop-color:#000000"/>
</linearGradient>
<path style="opacity:0.5;fill:url(#SVGID_00000018939451256330901370000002637414724916248226_);" d="M276.9,95.5l-25,0
	c-15.6,1.8-15.2,16.6-15.2,16.6c0.4,16.5,14.9,16.6,14.9,16.6l38,0l0.2-0.2l0.2-0.2v-17.6C288.8,98.2,276.9,95.5,276.9,95.5z
	 M280,119.5c-0.7-0.5-1.9-0.8-1.9-0.8l-26-0.1c-4.5-0.1-5.8-5-5.8-5V111c1.7-4.7,5.3-5.2,5.3-5.2h22.9c4.5,0.5,5.5,4.9,5.5,4.9
	V119.5z"/>
<linearGradient id="SVGID_00000090289316259937823130000008287773365829383854_" gradientUnits="userSpaceOnUse" x1="318.5017" y1="184.8873" x2="321.1684" y2="-19.5571">
	<stop  offset="0.176" style="stop-color:#000000;stop-opacity:0.1"/>
	<stop  offset="0.4309" style="stop-color:#300A3D;stop-opacity:0.5"/>
	<stop  offset="0.6728" style="stop-color:#0F1027;stop-opacity:0.7"/>
	<stop  offset="0.973" style="stop-color:#000000"/>
</linearGradient>
<path style="opacity:0.5;fill:url(#SVGID_00000090289316259937823130000008287773365829383854_);" d="M302.6,128.5l-0.3,0.3h-9.2
	l-0.3-0.3V95.9l0.3-0.3h9.2l0.3,0.2v1c0,0,1.4-1.3,4.7-1.3l24.4,0c0,0,12.1,0.5,14.4,15.1l0,17.8l-0.3,0.3h-9.3l-0.4-0.3l0.2-17.6
	c0,0-0.3-3.4-4.8-5.1h-23.9c0,0-3.6,0.3-5.1,5.2L302.6,128.5z"/>
<linearGradient id="SVGID_00000181779782167409063830000015518234812784174753_" gradientUnits="userSpaceOnUse" x1="374.756" y1="185.5694" x2="377.4227" y2="-18.8751">
	<stop  offset="0.176" style="stop-color:#000000;stop-opacity:0.1"/>
	<stop  offset="0.4309" style="stop-color:#300A3D;stop-opacity:0.5"/>
	<stop  offset="0.6728" style="stop-color:#0F1027;stop-opacity:0.7"/>
	<stop  offset="0.973" style="stop-color:#000000"/>
</linearGradient>
<path style="opacity:0.5;fill:url(#SVGID_00000181779782167409063830000015518234812784174753_);" d="M401.9,72.7h-9.2l-0.3,0.3
	v22.6h-27.9c-16.1,1.4-15.5,17.2-15.5,17.2c-0.2,13.5,14.4,16,14.4,16l38.6,0l0.3-0.3V73L401.9,72.7z M392.4,118.3h-28.8
	c0,0-5-1.1-4.9-6.2c0,0-0.1-5.8,5.9-6.3h27.8V118.3z"/>
<linearGradient id="SVGID_00000107587852732119662070000006592762614042597015_" gradientUnits="userSpaceOnUse" x1="430.8406" y1="186.3526" x2="433.5073" y2="-18.0918">
	<stop  offset="0.176" style="stop-color:#000000;stop-opacity:0.1"/>
	<stop  offset="0.4309" style="stop-color:#300A3D;stop-opacity:0.5"/>
	<stop  offset="0.6728" style="stop-color:#0F1027;stop-opacity:0.7"/>
	<stop  offset="0.973" style="stop-color:#000000"/>
</linearGradient>
<path style="opacity:0.5;fill:url(#SVGID_00000107587852732119662070000006592762614042597015_);" d="M458.4,112.6
	c0.4-3.8-2.1-8.9-2.1-8.9c-4.5-7.3-11.2-8.2-11.2-8.2h-25.8C404,98.3,405,112.4,405,112.4c1.2,15.8,14.8,16.3,14.8,16.3h38.3
	l0.3-0.3v-8.4l-0.3-0.3l-34.8,0c-5.9,0-7.3-3.5-7.3-3.5l39.5-0.2C457.9,115.8,458.4,112.6,458.4,112.6z M416,108.2
	c0,0,2.1-4.5,16.3-4.1c0,0,6.9-0.5,15.1,4.1H416z"/>
<linearGradient id="SVGID_00000101820932934710381070000002687139577755743911_" gradientUnits="userSpaceOnUse" x1="486.836" y1="187.083" x2="489.5026" y2="-17.3614">
	<stop  offset="0.176" style="stop-color:#000000;stop-opacity:0.1"/>
	<stop  offset="0.4309" style="stop-color:#300A3D;stop-opacity:0.5"/>
	<stop  offset="0.6728" style="stop-color:#0F1027;stop-opacity:0.7"/>
	<stop  offset="0.973" style="stop-color:#000000"/>
</linearGradient>
<path style="opacity:0.5;fill:url(#SVGID_00000101820932934710381070000002687139577755743911_);" d="M471.1,128.5l-0.3,0.3l-9,0
	l-0.5-0.3V96.1l0.3-0.5h9.2l0.3,0.6v0.5c0,0,1.3-1,4.8-1.2l24.7,0c0,0,12.5,0.8,14,16.4l-0.3,0.3l-9.4-0.1c0,0-0.1-5.1-5-6.3
	l-23.1,0.1c0,0-4.7,0.3-5.7,5.2L471.1,128.5z"/>
<linearGradient id="SVGID_00000104670304048225490570000000522816546452214922_" gradientUnits="userSpaceOnUse" x1="570.0757" y1="188.1687" x2="572.7424" y2="-16.2757">
	<stop  offset="0.176" style="stop-color:#000000;stop-opacity:0.1"/>
	<stop  offset="0.4309" style="stop-color:#300A3D;stop-opacity:0.5"/>
	<stop  offset="0.6728" style="stop-color:#0F1027;stop-opacity:0.7"/>
	<stop  offset="0.973" style="stop-color:#000000"/>
</linearGradient>
<path style="opacity:0.5;fill:url(#SVGID_00000104670304048225490570000000522816546452214922_);" d="M554.3,128.5l-0.3,0.3h-9.2
	l-0.3-0.3L544.4,87c0,0,1.8-13.9,15.3-14.3c0,0,6.6-0.8,11.4,4.5c0,0,4.6-5.4,11.4-4.5c0,0,12.3-0.4,15.2,14.7l0,41.1v0.3h-9.4
	l-0.5-0.6l-0.1-40.4c0,0,0.1-4.1-5.4-4.9c0,0-6.1-0.6-6.4,6.3l0.1,19.5l-0.3,0.3h-9.2l-0.4-0.4L566.1,89c0,0-0.4-5.9-5.9-6
	c0,0-4.6-0.3-5.8,5L554.3,128.5z"/>
<linearGradient id="SVGID_00000175304827903141654330000003154326828898037167_" gradientUnits="userSpaceOnUse" x1="626.4293" y1="188.9038" x2="629.0959" y2="-15.5407">
	<stop  offset="0.176" style="stop-color:#000000;stop-opacity:0.1"/>
	<stop  offset="0.4309" style="stop-color:#300A3D;stop-opacity:0.5"/>
	<stop  offset="0.6728" style="stop-color:#0F1027;stop-opacity:0.7"/>
	<stop  offset="0.973" style="stop-color:#000000"/>
</linearGradient>
<path style="opacity:0.5;fill:url(#SVGID_00000175304827903141654330000003154326828898037167_);" d="M653.7,118.4l0.3,0.3v9.7
	l-0.3,0.3h-37.9c0,0-13.2,0.2-15.1-16.7c0,0,0.6-14.7,14.3-16.6h38.3l0.7,0.4v9.7l-0.4,0.2l-38,0.1c0,0-4.7,0.2-5.1,6.6
	c0,0-0.8,4.7,5.4,5.8L653.7,118.4z"/>
<linearGradient id="SVGID_00000129892259136716000900000007172869938238511005_" gradientUnits="userSpaceOnUse" x1="682.3174" y1="189.6328" x2="684.9841" y2="-14.8117">
	<stop  offset="0.176" style="stop-color:#000000;stop-opacity:0.1"/>
	<stop  offset="0.4309" style="stop-color:#300A3D;stop-opacity:0.5"/>
	<stop  offset="0.6728" style="stop-color:#0F1027;stop-opacity:0.7"/>
	<stop  offset="0.973" style="stop-color:#000000"/>
</linearGradient>
<path style="opacity:0.5;fill:url(#SVGID_00000129892259136716000900000007172869938238511005_);" d="M666.7,128.5l-0.3,0.3h-9.2
	l-0.3-0.3V73l0.3-0.3h9.2l0.3,0.3v22.5h18c0,0,13.1-0.1,15.7-16.2l0-6.3l0.3-0.3h9.2l0.3,0.3v7.5c0,0,0.5,10.5-11.1,20.2
	c0,0,9.3,6,11.1,20.3l0,7.4l-0.3,0.3l-9.4,0l-0.2-0.5l0.1-6.4c0,0-1.3-14.2-16.3-16.1l-17.4,0.2L666.7,128.5z"/>
<linearGradient id="SVGID_00000044865505923487662550000010398156127323168928_" gradientUnits="userSpaceOnUse" x1="716.8051" y1="190.0826" x2="719.4718" y2="-14.3618">
	<stop  offset="0.176" style="stop-color:#000000;stop-opacity:0.1"/>
	<stop  offset="0.4309" style="stop-color:#300A3D;stop-opacity:0.5"/>
	<stop  offset="0.6728" style="stop-color:#0F1027;stop-opacity:0.7"/>
	<stop  offset="0.973" style="stop-color:#000000"/>
</linearGradient>
<polygon style="opacity:0.5;fill:url(#SVGID_00000044865505923487662550000010398156127323168928_);" points="713,95.9 713.3,95.5 
	722.3,95.5 722.7,95.9 722.7,128.5 722.3,128.8 713.3,128.8 713,128.5 "/>
<linearGradient id="SVGID_00000061472236482308248460000001219414053177705392_" gradientUnits="userSpaceOnUse" x1="716.3574" y1="190.0768" x2="719.0241" y2="-14.3677">
	<stop  offset="0.176" style="stop-color:#000000;stop-opacity:0.1"/>
	<stop  offset="0.4309" style="stop-color:#300A3D;stop-opacity:0.5"/>
	<stop  offset="0.6728" style="stop-color:#0F1027;stop-opacity:0.7"/>
	<stop  offset="0.973" style="stop-color:#000000"/>
</linearGradient>
<polygon style="opacity:0.5;fill:url(#SVGID_00000061472236482308248460000001219414053177705392_);" points="713,73.4 713,82.7 
	713.3,83 722.3,83 722.7,82.7 722.7,73 722.3,72.7 713.3,72.7 713,73 "/>
<linearGradient id="SVGID_00000098188875694100003420000017196996766266399926_" gradientUnits="userSpaceOnUse" x1="751.303" y1="190.5326" x2="753.9697" y2="-13.9119">
	<stop  offset="0.176" style="stop-color:#000000;stop-opacity:0.1"/>
	<stop  offset="0.4309" style="stop-color:#300A3D;stop-opacity:0.5"/>
	<stop  offset="0.6728" style="stop-color:#0F1027;stop-opacity:0.7"/>
	<stop  offset="0.973" style="stop-color:#000000"/>
</linearGradient>
<path style="opacity:0.5;fill:url(#SVGID_00000098188875694100003420000017196996766266399926_);" d="M778.9,112.4
	c0.5-4.1-2.1-8.7-2.1-8.7c-5.2-7.6-11.4-8.2-11.4-8.2h-25.2c-14.7,1.9-14.7,16.9-14.7,16.9c1.6,15.4,15.3,16.3,15.3,16.3h37.8
	l0.3-0.3v-8.4l-0.3-0.3l-35,0.1c-5.7-0.3-7.2-3.7-7.2-3.7l39.2-0.1C778.2,116.1,778.9,112.4,778.9,112.4z M736.4,108.1
	c0,0,1.3-4.1,16-3.9c0,0,8.9-0.7,15.3,3.9H736.4z"/>
<linearGradient id="SVGID_00000067227522027061127750000012306438873126815145_" gradientUnits="userSpaceOnUse" x1="834.1055" y1="191.6126" x2="836.7722" y2="-12.8318">
	<stop  offset="0.176" style="stop-color:#000000;stop-opacity:0.1"/>
	<stop  offset="0.4309" style="stop-color:#300A3D;stop-opacity:0.5"/>
	<stop  offset="0.6728" style="stop-color:#0F1027;stop-opacity:0.7"/>
	<stop  offset="0.973" style="stop-color:#000000"/>
</linearGradient>
<path style="opacity:0.5;fill:url(#SVGID_00000067227522027061127750000012306438873126815145_);" d="M818.5,128.5l-0.3,0.3l-9,0
	l-0.6-0.3V73l0.3-0.3h38.6c0,0,8.7-0.5,13.5,10.5c0,0,3.4,9.5-3.3,17.5c0,0,3.7,3.7,4.2,9.6l0.1,18.1l-0.3,0.3l-9.1,0l-0.6-0.4
	l0.1-17.6c0,0-0.4-4.3-6-4.9h-17.7l-0.3-0.3l0.1-9.6l0.2-0.4h18.2c0,0,5.4-0.3,5.5-5.9c0,0,1.2-4.7-4.7-6.7L818.5,83L818.5,128.5z"
	/>
<linearGradient id="SVGID_00000140010737363747592500000010621252786235475598_" gradientUnits="userSpaceOnUse" x1="890.5135" y1="192.3484" x2="893.1801" y2="-12.0961">
	<stop  offset="0.176" style="stop-color:#000000;stop-opacity:0.1"/>
	<stop  offset="0.4309" style="stop-color:#300A3D;stop-opacity:0.5"/>
	<stop  offset="0.6728" style="stop-color:#0F1027;stop-opacity:0.7"/>
	<stop  offset="0.973" style="stop-color:#000000"/>
</linearGradient>
<path style="opacity:0.5;fill:url(#SVGID_00000140010737363747592500000010621252786235475598_);" d="M918.1,112.4
	c0.3-4.5-2.1-8.7-2.1-8.7c-5.7-8.4-11.8-8.2-11.8-8.2h-26c-14.1,3.9-13.4,15.4-13.4,15.4c0.1,17.1,14.9,17.8,14.9,17.8l38,0l0.3-0.3
	v-8.4l-0.3-0.3l-34.6,0.2c-7.3-1.2-7.6-3.9-7.6-3.9h39.5C917.6,115.6,918.1,112.4,918.1,112.4z M875.8,108.2c0,0,1.3-4.1,15.7-4
	c0,0,10-0.5,15.8,4H875.8z"/>
<linearGradient id="SVGID_00000152967795846274145290000015669598637160574088_" gradientUnits="userSpaceOnUse" x1="946.5596" y1="193.0794" x2="949.2263" y2="-11.365">
	<stop  offset="0.176" style="stop-color:#000000;stop-opacity:0.1"/>
	<stop  offset="0.4309" style="stop-color:#300A3D;stop-opacity:0.5"/>
	<stop  offset="0.6728" style="stop-color:#0F1027;stop-opacity:0.7"/>
	<stop  offset="0.973" style="stop-color:#000000"/>
</linearGradient>
<path style="opacity:0.5;fill:url(#SVGID_00000152967795846274145290000015669598637160574088_);" d="M921.3,119.8l-0.3,0.3v8.4
	l0.3,0.3l38.5,0c0,0,14.1-0.8,14.6-17.4c0,0-0.5-2.9-3.6-3.2h-38.9c0,0,0.6-3.9,10.1-4.1l31.9,0.4l0.3-0.3v-8.4l-0.3-0.3l-38.8,0
	c0,0-11.3,1.1-14.2,13.5v3.5c0,0-0.1,3.8,3.6,3.7l39-0.1c0,0-1.3,2.9-6.9,3.7L921.3,119.8z"/>
<linearGradient id="SVGID_00000044164116623971662960000010567808660931621248_" gradientUnits="userSpaceOnUse" x1="1002.6952" y1="193.8116" x2="1005.3619" y2="-10.6328">
	<stop  offset="0.176" style="stop-color:#000000;stop-opacity:0.1"/>
	<stop  offset="0.4309" style="stop-color:#300A3D;stop-opacity:0.5"/>
	<stop  offset="0.6728" style="stop-color:#0F1027;stop-opacity:0.7"/>
	<stop  offset="0.973" style="stop-color:#000000"/>
</linearGradient>
<path style="opacity:0.5;fill:url(#SVGID_00000044164116623971662960000010567808660931621248_);" d="M977.4,95.5l-0.3,0.3v18.5
	c0,0,2.2,13.9,14.8,14.4l24.4,0c0,0,1.5,0.2,4.2-1.2v0.5l0.8,0.7l8.8,0l0.3-0.3V95.9l-0.3-0.3h-9.1l-0.3,0.6v17.2
	c0,0-0.9,4.7-5.4,5.1l-23.5-0.2c0,0-3.8-0.5-4.8-4.6l0-17.8l-0.3-0.3H977.4z"/>
<linearGradient id="SVGID_00000157283332655310654640000002586700477846467250_" gradientUnits="userSpaceOnUse" x1="1080.6508" y1="194.8284" x2="1083.3174" y2="-9.616">
	<stop  offset="0.176" style="stop-color:#000000;stop-opacity:0.1"/>
	<stop  offset="0.4309" style="stop-color:#300A3D;stop-opacity:0.5"/>
	<stop  offset="0.6728" style="stop-color:#0F1027;stop-opacity:0.7"/>
	<stop  offset="0.973" style="stop-color:#000000"/>
</linearGradient>
<path style="opacity:0.5;fill:url(#SVGID_00000157283332655310654640000002586700477846467250_);" d="M1043.2,95.9l-0.4-0.4h-9.2
	l-0.3,0.3v32.6l0.3,0.3h9.2l0.4-0.4v-17.5c0,0,0.8-4.5,5-4.9l23.6,0c0,0,4.6,1,4.9,5.5v17l0.3,0.3h9.4l0.3-0.3v-17.5
	c0,0,1-4.7,5.7-5h22.8c0,0,5.2,1.3,5.1,5.5v17l0.3,0.3h9.2l0.3-0.3v-17.7c0,0-1.6-14-14.2-15.2h-24.8c0,0-4.9,0.5-9.4,4.7
	c0,0-3.2-4.1-9.5-4.7l-24.5,0c0,0-2.8,0.2-4.5,1.1L1043.2,95.9z"/>
<linearGradient id="SVGID_00000005231999027903937900000007749153746903019967_" gradientUnits="userSpaceOnUse" x1="1158.7844" y1="195.8475" x2="1161.4512" y2="-8.5969">
	<stop  offset="0.176" style="stop-color:#000000;stop-opacity:0.1"/>
	<stop  offset="0.4309" style="stop-color:#300A3D;stop-opacity:0.5"/>
	<stop  offset="0.6728" style="stop-color:#0F1027;stop-opacity:0.7"/>
	<stop  offset="0.973" style="stop-color:#000000"/>
</linearGradient>
<path style="opacity:0.5;fill:url(#SVGID_00000005231999027903937900000007749153746903019967_);" d="M1186.5,112.4
	c0.2-4.8-2.1-8.7-2.1-8.7c-5.2-8.1-12.1-8.2-12.1-8.2h-25.2c-14.7,3.5-14,16.1-14,16.1c0.9,15.9,14.5,17.2,14.5,17.2h38.6l0.3-0.3
	v-8.4l-0.3-0.3l-35.5-0.1c-4.7,0-6.8-3.7-6.8-3.7l39.4,0.1C1185.9,116,1186.5,112.4,1186.5,112.4z M1143.9,108.2c0,0,2.4-4.1,15.4-4
	c0,0,10.1,0.1,16.1,4H1143.9z"/>
<linearGradient id="SVGID_00000034069867504613270130000012277830532215503268_" gradientUnits="userSpaceOnUse" x1="69.4427" y1="72.9864" x2="69.4427" y2="72.9864">
	<stop  offset="0.176" style="stop-color:#000000;stop-opacity:0.1"/>
	<stop  offset="0.4309" style="stop-color:#300A3D;stop-opacity:0.5"/>
	<stop  offset="0.6728" style="stop-color:#0F1027;stop-opacity:0.7"/>
	<stop  offset="0.973" style="stop-color:#000000"/>
</linearGradient>
<path style="opacity:0.5;fill:url(#SVGID_00000034069867504613270130000012277830532215503268_);" d="M69.4,73"/>
<linearGradient id="SVGID_00000114052886604027150460000015817885084252847028_" gradientUnits="userSpaceOnUse" x1="986.9453" y1="95.8741" x2="986.9453" y2="95.8741">
	<stop  offset="0.176" style="stop-color:#000000;stop-opacity:0.1"/>
	<stop  offset="0.4309" style="stop-color:#300A3D;stop-opacity:0.5"/>
	<stop  offset="0.6728" style="stop-color:#0F1027;stop-opacity:0.7"/>
	<stop  offset="0.973" style="stop-color:#000000"/>
</linearGradient>
<path style="opacity:0.5;fill:url(#SVGID_00000114052886604027150460000015817885084252847028_);" d="M986.9,95.9"/>
<linearGradient id="SVGID_00000055674888693810876010000010708431229994446783_" gradientUnits="userSpaceOnUse" x1="986.9453" y1="95.8741" x2="986.9453" y2="95.8741">
	<stop  offset="0.176" style="stop-color:#000000;stop-opacity:0.1"/>
	<stop  offset="0.4309" style="stop-color:#300A3D;stop-opacity:0.5"/>
	<stop  offset="0.6728" style="stop-color:#0F1027;stop-opacity:0.7"/>
	<stop  offset="0.973" style="stop-color:#000000"/>
</linearGradient>
<path style="opacity:0.5;fill:url(#SVGID_00000055674888693810876010000010708431229994446783_);" d="M986.9,95.9"/>
</svg>
