<?xml version="1.0" encoding="utf-8"?>
<!-- Generator: Adobe Illustrator 27.8.1, SVG Export Plug-In . SVG Version: 6.00 Build 0)  -->
<svg version="1.1" id="Layer_1" xmlns="http://www.w3.org/2000/svg" xmlns:xlink="http://www.w3.org/1999/xlink" x="0px" y="0px"
	 viewBox="0 0 1200 200" style="enable-background:new 0 0 1200 200;" xml:space="preserve">
<style type="text/css">
	.st0{fill:url(#SVGID_1_);stroke:#0F1235;stroke-width:5;stroke-miterlimit:10;stroke-opacity:0.1;}
	
		.st1{opacity:0.5;fill:url(#SVGID_00000075883787457616357000000007515122363123441839_);stroke:#0F1235;stroke-width:5;stroke-miterlimit:10;stroke-opacity:0.1;}
	
		.st2{opacity:0.5;fill:url(#SVGID_00000033361047742990331460000017990037286414516926_);stroke:#0F1235;stroke-width:5;stroke-miterlimit:10;stroke-opacity:0.1;}
	
		.st3{opacity:0.5;fill:url(#SVGID_00000178886482292041863720000015336965994533544347_);stroke:#0F1235;stroke-width:5;stroke-miterlimit:10;stroke-opacity:0.1;}
	
		.st4{opacity:0.5;fill:url(#SVGID_00000109752451662621699860000016575683149212310179_);stroke:#0F1235;stroke-width:5;stroke-miterlimit:10;stroke-opacity:0.1;}
	
		.st5{opacity:0.5;fill:url(#SVGID_00000000921457021398740570000016637711409120660356_);stroke:#0F1235;stroke-width:5;stroke-miterlimit:10;stroke-opacity:0.1;}
	
		.st6{opacity:0.5;fill:url(#SVGID_00000092447320369783494200000007159630104293368743_);stroke:#0F1235;stroke-width:5;stroke-miterlimit:10;stroke-opacity:0.1;}
	
		.st7{opacity:0.5;fill:url(#SVGID_00000085954722279992696520000001531999552041279674_);stroke:#0F1235;stroke-width:5;stroke-miterlimit:10;stroke-opacity:0.1;}
	
		.st8{opacity:0.5;fill:url(#SVGID_00000021109919260830248350000001543797266576230018_);stroke:#0F1235;stroke-width:5;stroke-miterlimit:10;stroke-opacity:0.1;}
	
		.st9{opacity:0.5;fill:url(#SVGID_00000055668290963633281070000014764725198340520885_);stroke:#0F1235;stroke-width:5;stroke-miterlimit:10;stroke-opacity:0.1;}
	
		.st10{opacity:0.5;fill:url(#SVGID_00000003805888107725436290000006927255502242711485_);stroke:#0F1235;stroke-width:5;stroke-miterlimit:10;stroke-opacity:0.1;}
	
		.st11{opacity:0.5;fill:url(#SVGID_00000066513134353986400390000003958537319641980347_);stroke:#0F1235;stroke-width:5;stroke-miterlimit:10;stroke-opacity:0.1;}
	
		.st12{opacity:0.5;fill:url(#SVGID_00000016069389544811516540000005631284636991825589_);stroke:#0F1235;stroke-width:5;stroke-miterlimit:10;stroke-opacity:0.1;}
	
		.st13{opacity:0.5;fill:url(#SVGID_00000115486792419990957100000007864242609811202700_);stroke:#0F1235;stroke-width:5;stroke-miterlimit:10;stroke-opacity:0.1;}
	
		.st14{opacity:0.5;fill:url(#SVGID_00000149373368444868712580000005790775119484997000_);stroke:#0F1235;stroke-width:5;stroke-miterlimit:10;stroke-opacity:0.1;}
	
		.st15{opacity:0.5;fill:url(#SVGID_00000119825086575464484940000001723277871377935492_);stroke:#0F1235;stroke-width:5;stroke-miterlimit:10;stroke-opacity:0.1;}
	
		.st16{opacity:0.5;fill:url(#SVGID_00000066498852344607594500000010685410619030780547_);stroke:#0F1235;stroke-width:5;stroke-miterlimit:10;stroke-opacity:0.1;}
	
		.st17{opacity:0.5;fill:url(#SVGID_00000025427953224610632230000008530719329993874338_);stroke:#0F1235;stroke-width:5;stroke-miterlimit:10;stroke-opacity:0.1;}
	
		.st18{opacity:0.5;fill:url(#SVGID_00000026862268479755143340000004285710339677650079_);stroke:#0F1235;stroke-width:5;stroke-miterlimit:10;stroke-opacity:0.1;}
	
		.st19{opacity:0.5;fill:url(#SVGID_00000007402268747159781140000010496900179304327096_);stroke:#0F1235;stroke-width:5;stroke-miterlimit:10;stroke-opacity:0.1;}
	
		.st20{opacity:0.5;fill:url(#SVGID_00000152249983192419216850000001166174835123533700_);stroke:#0F1235;stroke-width:5;stroke-miterlimit:10;stroke-opacity:0.1;}
	
		.st21{opacity:0.5;fill:url(#SVGID_00000170992499723754858140000003641488463571732145_);stroke:#0F1235;stroke-width:5;stroke-miterlimit:10;stroke-opacity:0.1;}
	
		.st22{opacity:0.5;fill:url(#SVGID_00000108282191487670769500000008521189118599633076_);stroke:#0F1235;stroke-width:5;stroke-miterlimit:10;stroke-opacity:0.1;}
	
		.st23{opacity:0.5;fill:url(#SVGID_00000018234329716022993010000012427173167052372927_);stroke:#0F1235;stroke-width:5;stroke-miterlimit:10;stroke-opacity:0.1;}
	
		.st24{opacity:0.5;fill:url(#SVGID_00000096757551098711222400000010778951917135954094_);stroke:#0F1235;stroke-width:5;stroke-miterlimit:10;stroke-opacity:0.1;}
</style>
<linearGradient id="SVGID_1_" gradientUnits="userSpaceOnUse" x1="40.8441" y1="128.6167" x2="40.8441" y2="128.6167">
	<stop  offset="2.159827e-03" style="stop-color:#D5EFFA;stop-opacity:0.7"/>
	<stop  offset="0.1717" style="stop-color:#000000;stop-opacity:0.7"/>
	<stop  offset="0.3164" style="stop-color:#6A6EA0;stop-opacity:0.7"/>
	<stop  offset="0.4935" style="stop-color:#98D8E3;stop-opacity:0.7"/>
	<stop  offset="0.6728" style="stop-color:#0F1027;stop-opacity:0.7"/>
	<stop  offset="0.973" style="stop-color:#000000;stop-opacity:0.7"/>
</linearGradient>
<path class="st0" d="M40.8,128.6"/>
<linearGradient id="SVGID_00000034810453298810842780000009673580179506243732_" gradientUnits="userSpaceOnUse" x1="51.3644" y1="160.8258" x2="50.2755" y2="-31.9202">
	<stop  offset="2.159827e-03" style="stop-color:#D5EFFA;stop-opacity:0.7"/>
	<stop  offset="0.1717" style="stop-color:#000000;stop-opacity:0.7"/>
	<stop  offset="0.3164" style="stop-color:#6A6EA0;stop-opacity:0.7"/>
	<stop  offset="0.4935" style="stop-color:#98D8E3;stop-opacity:0.7"/>
	<stop  offset="0.6728" style="stop-color:#0F1027;stop-opacity:0.7"/>
	<stop  offset="0.973" style="stop-color:#000000;stop-opacity:0.7"/>
</linearGradient>
<path style="opacity:0.5;fill:url(#SVGID_00000034810453298810842780000009673580179506243732_);stroke:#0F1235;stroke-width:5;stroke-miterlimit:10;stroke-opacity:0.1;" d="
	M51.8,71.5c-23.9-0.1-26.9,25.8-26.9,25.8l0,31.6l0.3,0.3l8.9,0l0.5-0.3l0.1-23h32.7l0.2,22.8l0.3,0.6l9.3-0.3l0-31.9
	C72,70.3,51.8,71.5,51.8,71.5z M34.9,95c0,0,4.3-13.4,16.5-13c0,0,11-0.2,15.4,13H34.9z"/>
<linearGradient id="SVGID_00000059289269406759103120000009735868527180730030_" gradientUnits="userSpaceOnUse" x1="106.3882" y1="160.4461" x2="105.2997" y2="-32.2191">
	<stop  offset="2.159827e-03" style="stop-color:#D5EFFA;stop-opacity:0.7"/>
	<stop  offset="0.1717" style="stop-color:#000000;stop-opacity:0.7"/>
	<stop  offset="0.3164" style="stop-color:#6A6EA0;stop-opacity:0.7"/>
	<stop  offset="0.4935" style="stop-color:#98D8E3;stop-opacity:0.7"/>
	<stop  offset="0.6728" style="stop-color:#0F1027;stop-opacity:0.7"/>
	<stop  offset="0.973" style="stop-color:#000000;stop-opacity:0.7"/>
</linearGradient>
<path style="opacity:0.5;fill:url(#SVGID_00000059289269406759103120000009735868527180730030_);stroke:#0F1235;stroke-width:5;stroke-miterlimit:10;stroke-opacity:0.1;" d="
	M89,71.4l0.6,0.3l-0.1,41.7c0.6,4.4,4.8,5,4.8,5l23.4,0.1c3.8-0.2,5-6.4,5-6.4l0.1-0.5l9.4,0.1v0.6c-0.5,15.6-14.3,16.9-14.3,16.9
	l-24.2,0c-13-2.3-13.7-15.3-13.7-15.3V71.8l0.3-0.3H89z"/>
<linearGradient id="SVGID_00000109009273551862252930000003413126319633197445_" gradientUnits="userSpaceOnUse" x1="161.5208" y1="160.0422" x2="160.4328" y2="-32.5232">
	<stop  offset="2.159827e-03" style="stop-color:#D5EFFA;stop-opacity:0.7"/>
	<stop  offset="0.1717" style="stop-color:#000000;stop-opacity:0.7"/>
	<stop  offset="0.3164" style="stop-color:#6A6EA0;stop-opacity:0.7"/>
	<stop  offset="0.4935" style="stop-color:#98D8E3;stop-opacity:0.7"/>
	<stop  offset="0.6728" style="stop-color:#0F1027;stop-opacity:0.7"/>
	<stop  offset="0.973" style="stop-color:#000000;stop-opacity:0.7"/>
</linearGradient>
<path style="opacity:0.5;fill:url(#SVGID_00000109009273551862252930000003413126319633197445_);stroke:#0F1235;stroke-width:5;stroke-miterlimit:10;stroke-opacity:0.1;" d="
	M187.5,112.1c0.3-4-2.2-8.7-2.2-8.7c-5-8.3-11.8-8.5-11.8-8.5h-25c-14.8,4-13.6,17.3-13.6,17.3c1.4,17.2,15,17,15,17h37l0.3-0.3
	v-8.6l-0.3-0.3l-34,0.1c-5.6-0.1-7.6-3.9-7.6-3.9h38.6C186.6,116.2,187.5,112.1,187.5,112.1z M145.9,107.9c0,0,1.1-3.8,15-3.8
	c0,0,11.4-0.6,15.8,3.8H145.9z"/>
<linearGradient id="SVGID_00000097480740893056905530000015248816397079296190_" gradientUnits="userSpaceOnUse" x1="216.4861" y1="159.6579" x2="215.3986" y2="-32.8258">
	<stop  offset="2.159827e-03" style="stop-color:#D5EFFA;stop-opacity:0.7"/>
	<stop  offset="0.1717" style="stop-color:#000000;stop-opacity:0.7"/>
	<stop  offset="0.3164" style="stop-color:#6A6EA0;stop-opacity:0.7"/>
	<stop  offset="0.4935" style="stop-color:#98D8E3;stop-opacity:0.7"/>
	<stop  offset="0.6728" style="stop-color:#0F1027;stop-opacity:0.7"/>
	<stop  offset="0.973" style="stop-color:#000000;stop-opacity:0.7"/>
</linearGradient>
<polygon style="opacity:0.5;fill:url(#SVGID_00000097480740893056905530000015248816397079296190_);stroke:#0F1235;stroke-width:5;stroke-miterlimit:10;stroke-opacity:0.1;" points="
	190.1,95.3 190.4,95 199.3,95 199.6,95.3 199.6,97.2 216.2,106.2 232.9,97.2 232.9,95.3 233.2,95 242,95 242.3,95.3 242.3,103.9 
	227.4,112.2 242.3,120.1 242.3,128.9 242,129.2 233.2,129.2 232.9,128.9 232.9,126.9 216.2,118 199.6,127 199.6,128.9 199.3,129.2 
	190.4,129.2 190.1,128.8 190.1,120.2 205,112.1 190.1,104.1 "/>
<linearGradient id="SVGID_00000129891977867020060580000006459313545127944320_" gradientUnits="userSpaceOnUse" x1="270.3199" y1="159.3085" x2="269.2319" y2="-33.2657">
	<stop  offset="2.159827e-03" style="stop-color:#D5EFFA;stop-opacity:0.7"/>
	<stop  offset="0.1717" style="stop-color:#000000;stop-opacity:0.7"/>
	<stop  offset="0.3164" style="stop-color:#6A6EA0;stop-opacity:0.7"/>
	<stop  offset="0.4935" style="stop-color:#98D8E3;stop-opacity:0.7"/>
	<stop  offset="0.6728" style="stop-color:#0F1027;stop-opacity:0.7"/>
	<stop  offset="0.973" style="stop-color:#000000;stop-opacity:0.7"/>
</linearGradient>
<path style="opacity:0.5;fill:url(#SVGID_00000129891977867020060580000006459313545127944320_);stroke:#0F1235;stroke-width:5;stroke-miterlimit:10;stroke-opacity:0.1;" d="
	M283.4,95l-24.5,0c-15.3,1.9-14.9,17.1-14.9,17.1c0.4,16.9,14.6,17.1,14.6,17.1l37.3,0l0.2-0.2l0.1-0.2v-18.1
	C295,97.8,283.4,95,283.4,95z M286.4,119.6c-0.7-0.6-1.9-0.8-1.9-0.8l-25.5-0.1c-4.4-0.1-5.7-5.2-5.7-5.2v-2.6
	c1.6-4.9,5.2-5.4,5.2-5.4H281c4.4,0.6,5.4,5,5.4,5V119.6z"/>
<linearGradient id="SVGID_00000124881932525870019870000000216259502035742877_" gradientUnits="userSpaceOnUse" x1="325.3079" y1="158.9231" x2="324.2204" y2="-33.5607">
	<stop  offset="2.159827e-03" style="stop-color:#D5EFFA;stop-opacity:0.7"/>
	<stop  offset="0.1717" style="stop-color:#000000;stop-opacity:0.7"/>
	<stop  offset="0.3164" style="stop-color:#6A6EA0;stop-opacity:0.7"/>
	<stop  offset="0.4935" style="stop-color:#98D8E3;stop-opacity:0.7"/>
	<stop  offset="0.6728" style="stop-color:#0F1027;stop-opacity:0.7"/>
	<stop  offset="0.973" style="stop-color:#000000;stop-opacity:0.7"/>
</linearGradient>
<path style="opacity:0.5;fill:url(#SVGID_00000124881932525870019870000000216259502035742877_);stroke:#0F1235;stroke-width:5;stroke-miterlimit:10;stroke-opacity:0.1;" d="
	M308.6,128.9l-0.3,0.3h-9l-0.3-0.3V95.3l0.3-0.3h9l0.3,0.2v1c0,0,1.4-1.4,4.6-1.3l23.9,0c0,0,11.8,0.5,14.1,15.5l0,18.4l-0.3,0.3
	h-9.1l-0.4-0.3l0.2-18.1c0,0-0.3-3.5-4.7-5.2h-23.5c0,0-3.5,0.3-5,5.4L308.6,128.9z"/>
<linearGradient id="SVGID_00000170244651102582003220000007273419036928360622_" gradientUnits="userSpaceOnUse" x1="380.4922" y1="158.5942" x2="379.4032" y2="-34.1769">
	<stop  offset="2.159827e-03" style="stop-color:#D5EFFA;stop-opacity:0.7"/>
	<stop  offset="0.1717" style="stop-color:#000000;stop-opacity:0.7"/>
	<stop  offset="0.3164" style="stop-color:#6A6EA0;stop-opacity:0.7"/>
	<stop  offset="0.4935" style="stop-color:#98D8E3;stop-opacity:0.7"/>
	<stop  offset="0.6728" style="stop-color:#0F1027;stop-opacity:0.7"/>
	<stop  offset="0.973" style="stop-color:#000000;stop-opacity:0.7"/>
</linearGradient>
<path style="opacity:0.5;fill:url(#SVGID_00000170244651102582003220000007273419036928360622_);stroke:#0F1235;stroke-width:5;stroke-miterlimit:10;stroke-opacity:0.1;" d="
	M405.9,71.4h-9l-0.3,0.3V95h-27.4c-15.8,1.4-15.2,17.7-15.2,17.7c-0.2,13.9,14.1,16.5,14.1,16.5l37.8,0l0.3-0.3V71.8L405.9,71.4z
	 M396.6,118.5h-28.3c0,0-4.9-1.2-4.8-6.4c0,0-0.1-6,5.8-6.5h27.2V118.5z"/>
<linearGradient id="SVGID_00000060721530977345428090000012532890245049773485_" gradientUnits="userSpaceOnUse" x1="435.3952" y1="158.1924" x2="434.3072" y2="-34.376">
	<stop  offset="2.159827e-03" style="stop-color:#D5EFFA;stop-opacity:0.7"/>
	<stop  offset="0.1717" style="stop-color:#000000;stop-opacity:0.7"/>
	<stop  offset="0.3164" style="stop-color:#6A6EA0;stop-opacity:0.7"/>
	<stop  offset="0.4935" style="stop-color:#98D8E3;stop-opacity:0.7"/>
	<stop  offset="0.6728" style="stop-color:#0F1027;stop-opacity:0.7"/>
	<stop  offset="0.973" style="stop-color:#000000;stop-opacity:0.7"/>
</linearGradient>
<path style="opacity:0.5;fill:url(#SVGID_00000060721530977345428090000012532890245049773485_);stroke:#0F1235;stroke-width:5;stroke-miterlimit:10;stroke-opacity:0.1;" d="
	M461.3,112.5c0.4-3.9-2-9.1-2-9.1c-4.4-7.5-11-8.5-11-8.5H423c-15.1,2.9-14.1,17.4-14.1,17.4c1.2,16.2,14.5,16.8,14.5,16.8H461
	l0.3-0.3v-8.6l-0.3-0.3l-34.2,0c-5.8,0-7.1-3.6-7.1-3.6l38.8-0.2C460.8,115.9,461.3,112.5,461.3,112.5z M419.7,108.1
	c0,0,2-4.6,16-4.2c0,0,6.8-0.6,14.8,4.2H419.7z"/>
<linearGradient id="SVGID_00000109727084215044804810000015947301371957140384_" gradientUnits="userSpaceOnUse" x1="490.4297" y1="157.8945" x2="489.3408" y2="-34.8535">
	<stop  offset="2.159827e-03" style="stop-color:#D5EFFA;stop-opacity:0.7"/>
	<stop  offset="0.1717" style="stop-color:#000000;stop-opacity:0.7"/>
	<stop  offset="0.3164" style="stop-color:#6A6EA0;stop-opacity:0.7"/>
	<stop  offset="0.4935" style="stop-color:#98D8E3;stop-opacity:0.7"/>
	<stop  offset="0.6728" style="stop-color:#0F1027;stop-opacity:0.7"/>
	<stop  offset="0.973" style="stop-color:#000000;stop-opacity:0.7"/>
</linearGradient>
<path style="opacity:0.5;fill:url(#SVGID_00000109727084215044804810000015947301371957140384_);stroke:#0F1235;stroke-width:5;stroke-miterlimit:10;stroke-opacity:0.1;" d="
	M473.7,128.9l-0.3,0.3l-8.9,0l-0.5-0.3V95.5l0.3-0.5h9l0.3,0.7v0.6c0,0,1.3-1.1,4.7-1.2l24.2,0c0,0,12.3,0.9,13.7,16.9l-0.3,0.3
	l-9.2-0.1c0,0-0.1-5.3-4.9-6.5l-22.6,0.1c0,0-4.6,0.3-5.6,5.4L473.7,128.9z"/>
<linearGradient id="SVGID_00000140720274692622413060000004215652942260036759_" gradientUnits="userSpaceOnUse" x1="572.0933" y1="157.2833" x2="571.0048" y2="-35.3862">
	<stop  offset="2.159827e-03" style="stop-color:#D5EFFA;stop-opacity:0.7"/>
	<stop  offset="0.1717" style="stop-color:#000000;stop-opacity:0.7"/>
	<stop  offset="0.3164" style="stop-color:#6A6EA0;stop-opacity:0.7"/>
	<stop  offset="0.4935" style="stop-color:#98D8E3;stop-opacity:0.7"/>
	<stop  offset="0.6728" style="stop-color:#0F1027;stop-opacity:0.7"/>
	<stop  offset="0.973" style="stop-color:#000000;stop-opacity:0.7"/>
</linearGradient>
<path style="opacity:0.5;fill:url(#SVGID_00000140720274692622413060000004215652942260036759_);stroke:#0F1235;stroke-width:5;stroke-miterlimit:10;stroke-opacity:0.1;" d="
	M555.3,128.9l-0.3,0.3h-9l-0.3-0.3l-0.1-42.7c0,0,1.8-14.3,15-14.7c0,0,6.5-0.8,11.2,4.6c0,0,4.5-5.5,11.2-4.6c0,0,12-0.4,14.9,15.2
	l0,42.3v0.3h-9.3l-0.5-0.6l-0.1-41.6c0,0,0.1-4.2-5.3-5c0,0-5.9-0.6-6.2,6.5l0.1,20l-0.3,0.3h-9l-0.4-0.4l-0.1-20.2
	c0,0-0.4-6.1-5.8-6.1c0,0-4.5-0.3-5.7,5.2L555.3,128.9z"/>
<linearGradient id="SVGID_00000142147165329016634310000013311167771772763784_" gradientUnits="userSpaceOnUse" x1="627.173" y1="156.897" x2="626.0851" y2="-35.6717">
	<stop  offset="2.159827e-03" style="stop-color:#D5EFFA;stop-opacity:0.7"/>
	<stop  offset="0.1717" style="stop-color:#000000;stop-opacity:0.7"/>
	<stop  offset="0.3164" style="stop-color:#6A6EA0;stop-opacity:0.7"/>
	<stop  offset="0.4935" style="stop-color:#98D8E3;stop-opacity:0.7"/>
	<stop  offset="0.6728" style="stop-color:#0F1027;stop-opacity:0.7"/>
	<stop  offset="0.973" style="stop-color:#000000;stop-opacity:0.7"/>
</linearGradient>
<path style="opacity:0.5;fill:url(#SVGID_00000142147165329016634310000013311167771772763784_);stroke:#0F1235;stroke-width:5;stroke-miterlimit:10;stroke-opacity:0.1;" d="
	M652.7,118.6l0.3,0.3v10l-0.3,0.3h-37.2c0,0-13,0.2-14.8-17.2c0,0,0.5-15.1,14-17.1h37.6l0.6,0.4v10l-0.4,0.2l-37.3,0.1
	c0,0-4.6,0.2-5,6.8c0,0-0.8,4.9,5.3,6L652.7,118.6z"/>
<linearGradient id="SVGID_00000015343530588665752360000015741846747709548674_" gradientUnits="userSpaceOnUse" x1="682.2353" y1="156.5314" x2="681.147" y2="-36.0824">
	<stop  offset="2.159827e-03" style="stop-color:#D5EFFA;stop-opacity:0.7"/>
	<stop  offset="0.1717" style="stop-color:#000000;stop-opacity:0.7"/>
	<stop  offset="0.3164" style="stop-color:#6A6EA0;stop-opacity:0.7"/>
	<stop  offset="0.4935" style="stop-color:#98D8E3;stop-opacity:0.7"/>
	<stop  offset="0.6728" style="stop-color:#0F1027;stop-opacity:0.7"/>
	<stop  offset="0.973" style="stop-color:#000000;stop-opacity:0.7"/>
</linearGradient>
<path style="opacity:0.5;fill:url(#SVGID_00000015343530588665752360000015741846747709548674_);stroke:#0F1235;stroke-width:5;stroke-miterlimit:10;stroke-opacity:0.1;" d="
	M665.4,128.9l-0.3,0.3h-9l-0.3-0.3V71.8l0.3-0.3h9l0.3,0.3V95h17.6c0,0,12.8-0.1,15.4-16.7l0-6.5l0.3-0.3h9l0.3,0.3v7.7
	c0,0,0.4,10.8-10.9,20.8c0,0,9.1,6.1,10.9,20.9l0,7.6l-0.3,0.3l-9.2,0l-0.2-0.5l0.1-6.6c0,0-1.3-14.6-16-16.5l-17.1,0.2L665.4,128.9
	z"/>
<linearGradient id="SVGID_00000017491199700541547150000009759279043623592355_" gradientUnits="userSpaceOnUse" x1="715.8345" y1="156.347" x2="714.7455" y2="-36.4021">
	<stop  offset="2.159827e-03" style="stop-color:#D5EFFA;stop-opacity:0.7"/>
	<stop  offset="0.1717" style="stop-color:#000000;stop-opacity:0.7"/>
	<stop  offset="0.3164" style="stop-color:#6A6EA0;stop-opacity:0.7"/>
	<stop  offset="0.4935" style="stop-color:#98D8E3;stop-opacity:0.7"/>
	<stop  offset="0.6728" style="stop-color:#0F1027;stop-opacity:0.7"/>
	<stop  offset="0.973" style="stop-color:#000000;stop-opacity:0.7"/>
</linearGradient>
<polygon style="opacity:0.5;fill:url(#SVGID_00000017491199700541547150000009759279043623592355_);stroke:#0F1235;stroke-width:5;stroke-miterlimit:10;stroke-opacity:0.1;" points="
	710.8,95.3 711.2,95 720,95 720.3,95.3 720.3,128.9 720,129.2 711.2,129.2 710.8,128.9 "/>
<linearGradient id="SVGID_00000181081618352207122560000007895984410845636278_" gradientUnits="userSpaceOnUse" x1="716.0338" y1="156.2853" x2="714.9456" y2="-36.3417">
	<stop  offset="2.159827e-03" style="stop-color:#D5EFFA;stop-opacity:0.7"/>
	<stop  offset="0.1717" style="stop-color:#000000;stop-opacity:0.7"/>
	<stop  offset="0.3164" style="stop-color:#6A6EA0;stop-opacity:0.7"/>
	<stop  offset="0.4935" style="stop-color:#98D8E3;stop-opacity:0.7"/>
	<stop  offset="0.6728" style="stop-color:#0F1027;stop-opacity:0.7"/>
	<stop  offset="0.973" style="stop-color:#000000;stop-opacity:0.7"/>
</linearGradient>
<polygon style="opacity:0.5;fill:url(#SVGID_00000181081618352207122560000007895984410845636278_);stroke:#0F1235;stroke-width:5;stroke-miterlimit:10;stroke-opacity:0.1;" points="
	710.8,72.2 710.8,81.8 711.2,82.1 720,82.1 720.3,81.8 720.3,71.8 720,71.4 711.2,71.4 710.8,71.8 "/>
<linearGradient id="SVGID_00000148623686785931751530000000852199647950244257_" gradientUnits="userSpaceOnUse" x1="749.5801" y1="156.0702" x2="748.4922" y2="-36.5">
	<stop  offset="2.159827e-03" style="stop-color:#D5EFFA;stop-opacity:0.7"/>
	<stop  offset="0.1717" style="stop-color:#000000;stop-opacity:0.7"/>
	<stop  offset="0.3164" style="stop-color:#6A6EA0;stop-opacity:0.7"/>
	<stop  offset="0.4935" style="stop-color:#98D8E3;stop-opacity:0.7"/>
	<stop  offset="0.6728" style="stop-color:#0F1027;stop-opacity:0.7"/>
	<stop  offset="0.973" style="stop-color:#000000;stop-opacity:0.7"/>
</linearGradient>
<path style="opacity:0.5;fill:url(#SVGID_00000148623686785931751530000000852199647950244257_);stroke:#0F1235;stroke-width:5;stroke-miterlimit:10;stroke-opacity:0.1;" d="
	M775.5,112.4c0.5-4.2-2-8.9-2-8.9c-5.1-7.8-11.2-8.4-11.2-8.4h-24.7c-14.4,1.9-14.4,17.4-14.4,17.4c1.6,15.9,15,16.8,15,16.8h37
	l0.3-0.3v-8.6l-0.3-0.3l-34.3,0.1c-5.6-0.3-7-3.8-7-3.8l38.5-0.1C774.8,116.2,775.5,112.4,775.5,112.4z M733.8,107.9
	c0,0,1.3-4.3,15.7-4c0,0,8.7-0.8,15,4H733.8z"/>
<linearGradient id="SVGID_00000016069726746001402410000000996360877718910600_" gradientUnits="userSpaceOnUse" x1="830.9658" y1="155.5263" x2="829.8775" y2="-37.0875">
	<stop  offset="2.159827e-03" style="stop-color:#D5EFFA;stop-opacity:0.7"/>
	<stop  offset="0.1717" style="stop-color:#000000;stop-opacity:0.7"/>
	<stop  offset="0.3164" style="stop-color:#6A6EA0;stop-opacity:0.7"/>
	<stop  offset="0.4935" style="stop-color:#98D8E3;stop-opacity:0.7"/>
	<stop  offset="0.6728" style="stop-color:#0F1027;stop-opacity:0.7"/>
	<stop  offset="0.973" style="stop-color:#000000;stop-opacity:0.7"/>
</linearGradient>
<path style="opacity:0.5;fill:url(#SVGID_00000016069726746001402410000000996360877718910600_);stroke:#0F1235;stroke-width:5;stroke-miterlimit:10;stroke-opacity:0.1;" d="
	M814.3,128.9l-0.3,0.3l-8.8,0l-0.5-0.3V71.8l0.3-0.3h37.8c0,0,8.5-0.5,13.2,10.8c0,0,3.4,9.8-3.3,18.1c0,0,3.6,3.8,4.1,9.9l0.1,18.6
	l-0.3,0.3l-8.9,0l-0.5-0.4l0.1-18.1c0,0-0.4-4.5-5.9-5.1h-17.4l-0.3-0.3l0.1-9.8l0.2-0.4h17.8c0,0,5.3-0.3,5.4-6.1
	c0,0,1.1-4.9-4.6-6.9l-28.3,0.1L814.3,128.9z"/>
<linearGradient id="SVGID_00000114754789716496139710000012986907712870955697_" gradientUnits="userSpaceOnUse" x1="886.06" y1="155.1473" x2="884.972" y2="-37.416">
	<stop  offset="2.159827e-03" style="stop-color:#D5EFFA;stop-opacity:0.7"/>
	<stop  offset="0.1717" style="stop-color:#000000;stop-opacity:0.7"/>
	<stop  offset="0.3164" style="stop-color:#6A6EA0;stop-opacity:0.7"/>
	<stop  offset="0.4935" style="stop-color:#98D8E3;stop-opacity:0.7"/>
	<stop  offset="0.6728" style="stop-color:#0F1027;stop-opacity:0.7"/>
	<stop  offset="0.973" style="stop-color:#000000;stop-opacity:0.7"/>
</linearGradient>
<path style="opacity:0.5;fill:url(#SVGID_00000114754789716496139710000012986907712870955697_);stroke:#0F1235;stroke-width:5;stroke-miterlimit:10;stroke-opacity:0.1;" d="
	M911.9,112.4c0.3-4.6-2-8.9-2-8.9c-5.6-8.6-11.6-8.5-11.6-8.5h-25.4c-13.8,4-13.1,15.9-13.1,15.9c0.1,17.6,14.6,18.4,14.6,18.4
	l37.3,0l0.3-0.3v-8.6l-0.3-0.3l-33.9,0.2c-7.1-1.2-7.4-4-7.4-4H909C911.4,115.6,911.9,112.4,911.9,112.4z M870.4,108
	c0,0,1.2-4.2,15.4-4.1c0,0,9.8-0.6,15.5,4.1H870.4z"/>
<linearGradient id="SVGID_00000036933950783621679760000011340074011114620087_" gradientUnits="userSpaceOnUse" x1="941.0762" y1="154.803" x2="939.9877" y2="-37.851">
	<stop  offset="2.159827e-03" style="stop-color:#D5EFFA;stop-opacity:0.7"/>
	<stop  offset="0.1717" style="stop-color:#000000;stop-opacity:0.7"/>
	<stop  offset="0.3164" style="stop-color:#6A6EA0;stop-opacity:0.7"/>
	<stop  offset="0.4935" style="stop-color:#98D8E3;stop-opacity:0.7"/>
	<stop  offset="0.6728" style="stop-color:#0F1027;stop-opacity:0.7"/>
	<stop  offset="0.973" style="stop-color:#000000;stop-opacity:0.7"/>
</linearGradient>
<path style="opacity:0.5;fill:url(#SVGID_00000036933950783621679760000011340074011114620087_);stroke:#0F1235;stroke-width:5;stroke-miterlimit:10;stroke-opacity:0.1;" d="
	M915,119.9l-0.3,0.3v8.6l0.3,0.3l37.7,0c0,0,13.8-0.9,14.3-17.9c0,0-0.5-2.9-3.5-3.3h-38.1c0,0,0.6-4,9.9-4.2l31.3,0.4l0.3-0.3v-8.6
	l-0.3-0.3l-38,0c0,0-11.1,1.1-13.9,13.9v3.6c0,0-0.1,3.9,3.5,3.8l38.3-0.1c0,0-1.3,3-6.7,3.8L915,119.9z"/>
<linearGradient id="SVGID_00000183234524795609013040000011717888020926326696_" gradientUnits="userSpaceOnUse" x1="996.1633" y1="154.3932" x2="995.0758" y2="-38.0906">
	<stop  offset="2.159827e-03" style="stop-color:#D5EFFA;stop-opacity:0.7"/>
	<stop  offset="0.1717" style="stop-color:#000000;stop-opacity:0.7"/>
	<stop  offset="0.3164" style="stop-color:#6A6EA0;stop-opacity:0.7"/>
	<stop  offset="0.4935" style="stop-color:#98D8E3;stop-opacity:0.7"/>
	<stop  offset="0.6728" style="stop-color:#0F1027;stop-opacity:0.7"/>
	<stop  offset="0.973" style="stop-color:#000000;stop-opacity:0.7"/>
</linearGradient>
<path style="opacity:0.5;fill:url(#SVGID_00000183234524795609013040000011717888020926326696_);stroke:#0F1235;stroke-width:5;stroke-miterlimit:10;stroke-opacity:0.1;" d="
	M970.1,95l-0.3,0.3v19c0,0,2.2,14.3,14.6,14.9l23.9,0c0,0,1.5,0.2,4.1-1.2v0.5l0.7,0.7l8.6,0l0.3-0.3V95.3l-0.3-0.3h-8.9l-0.3,0.6
	v17.7c0,0-0.8,4.8-5.3,5.3l-23-0.2c0,0-3.7-0.6-4.7-4.7l0-18.3l-0.3-0.3H970.1z"/>
<linearGradient id="SVGID_00000129895006094748201640000002206159158293363589_" gradientUnits="userSpaceOnUse" x1="1072.5067" y1="153.821" x2="1071.4207" y2="-38.402">
	<stop  offset="2.159827e-03" style="stop-color:#D5EFFA;stop-opacity:0.7"/>
	<stop  offset="0.1717" style="stop-color:#000000;stop-opacity:0.7"/>
	<stop  offset="0.3164" style="stop-color:#6A6EA0;stop-opacity:0.7"/>
	<stop  offset="0.4935" style="stop-color:#98D8E3;stop-opacity:0.7"/>
	<stop  offset="0.6728" style="stop-color:#0F1027;stop-opacity:0.7"/>
	<stop  offset="0.973" style="stop-color:#000000;stop-opacity:0.7"/>
</linearGradient>
<path style="opacity:0.5;fill:url(#SVGID_00000129895006094748201640000002206159158293363589_);stroke:#0F1235;stroke-width:5;stroke-miterlimit:10;stroke-opacity:0.1;" d="
	M1034.5,95.4l-0.4-0.4h-9l-0.3,0.3v33.5l0.3,0.3h9l0.4-0.4v-18c0,0,0.8-4.7,4.9-5.1l23.1,0c0,0,4.5,1,4.8,5.7v17.5l0.3,0.3h9.2
	l0.3-0.3v-18.1c0,0,1-4.9,5.6-5.2h22.4c0,0,5.1,1.3,5,5.7v17.5l0.3,0.3h9l0.3-0.3v-18.2c0,0-1.6-14.4-14-15.7h-24.3
	c0,0-4.8,0.5-9.3,4.8c0,0-3.1-4.2-9.3-4.8l-24.1,0c0,0-2.7,0.2-4.4,1.2L1034.5,95.4z"/>
<linearGradient id="SVGID_00000113326164883593421170000009540888238623591342_" gradientUnits="userSpaceOnUse" x1="1149.0638" y1="153.3709" x2="1147.9758" y2="-39.1954">
	<stop  offset="2.159827e-03" style="stop-color:#D5EFFA;stop-opacity:0.7"/>
	<stop  offset="0.1717" style="stop-color:#000000;stop-opacity:0.7"/>
	<stop  offset="0.3164" style="stop-color:#6A6EA0;stop-opacity:0.7"/>
	<stop  offset="0.4935" style="stop-color:#98D8E3;stop-opacity:0.7"/>
	<stop  offset="0.6728" style="stop-color:#0F1027;stop-opacity:0.7"/>
	<stop  offset="0.973" style="stop-color:#000000;stop-opacity:0.7"/>
</linearGradient>
<path style="opacity:0.5;fill:url(#SVGID_00000113326164883593421170000009540888238623591342_);stroke:#0F1235;stroke-width:5;stroke-miterlimit:10;stroke-opacity:0.1;" d="
	M1175,112.4c0.2-5-2-8.9-2-8.9c-5.1-8.3-11.8-8.5-11.8-8.5h-24.7c-14.4,3.6-13.7,16.5-13.7,16.5c0.9,16.3,14.2,17.7,14.2,17.7h37.8
	l0.3-0.3v-8.6l-0.3-0.3l-34.8-0.1c-4.6,0-6.7-3.8-6.7-3.8l38.6,0.1C1174.4,116,1175,112.4,1175,112.4z M1133.3,108.1
	c0,0,2.4-4.3,15.1-4.1c0,0,9.9,0.1,15.8,4.1H1133.3z"/>
<linearGradient id="SVGID_00000078007202492535386400000000176023878355272372_" gradientUnits="userSpaceOnUse" x1="79.9947" y1="71.7794" x2="79.9947" y2="71.7794">
	<stop  offset="2.159827e-03" style="stop-color:#D5EFFA;stop-opacity:0.7"/>
	<stop  offset="0.1717" style="stop-color:#000000;stop-opacity:0.7"/>
	<stop  offset="0.3164" style="stop-color:#6A6EA0;stop-opacity:0.7"/>
	<stop  offset="0.4935" style="stop-color:#98D8E3;stop-opacity:0.7"/>
	<stop  offset="0.6728" style="stop-color:#0F1027;stop-opacity:0.7"/>
	<stop  offset="0.973" style="stop-color:#000000;stop-opacity:0.7"/>
</linearGradient>
<path style="opacity:0.5;fill:url(#SVGID_00000078007202492535386400000000176023878355272372_);stroke:#0F1235;stroke-width:5;stroke-miterlimit:10;stroke-opacity:0.1;" d="
	M80,71.8"/>
<linearGradient id="SVGID_00000052786897110834850290000002747307307015503788_" gradientUnits="userSpaceOnUse" x1="979.4" y1="95.338" x2="979.4" y2="95.338">
	<stop  offset="2.159827e-03" style="stop-color:#D5EFFA;stop-opacity:0.7"/>
	<stop  offset="0.1717" style="stop-color:#000000;stop-opacity:0.7"/>
	<stop  offset="0.3164" style="stop-color:#6A6EA0;stop-opacity:0.7"/>
	<stop  offset="0.4935" style="stop-color:#98D8E3;stop-opacity:0.7"/>
	<stop  offset="0.6728" style="stop-color:#0F1027;stop-opacity:0.7"/>
	<stop  offset="0.973" style="stop-color:#000000;stop-opacity:0.7"/>
</linearGradient>
<path style="opacity:0.5;fill:url(#SVGID_00000052786897110834850290000002747307307015503788_);stroke:#0F1235;stroke-width:5;stroke-miterlimit:10;stroke-opacity:0.1;" d="
	M979.4,95.3"/>
<linearGradient id="SVGID_00000054976557647642106020000011197434904660534434_" gradientUnits="userSpaceOnUse" x1="979.4" y1="95.338" x2="979.4" y2="95.338">
	<stop  offset="2.159827e-03" style="stop-color:#D5EFFA;stop-opacity:0.7"/>
	<stop  offset="0.1717" style="stop-color:#000000;stop-opacity:0.7"/>
	<stop  offset="0.3164" style="stop-color:#6A6EA0;stop-opacity:0.7"/>
	<stop  offset="0.4935" style="stop-color:#98D8E3;stop-opacity:0.7"/>
	<stop  offset="0.6728" style="stop-color:#0F1027;stop-opacity:0.7"/>
	<stop  offset="0.973" style="stop-color:#000000;stop-opacity:0.7"/>
</linearGradient>
<path style="opacity:0.5;fill:url(#SVGID_00000054976557647642106020000011197434904660534434_);stroke:#0F1235;stroke-width:5;stroke-miterlimit:10;stroke-opacity:0.1;" d="
	M979.4,95.3"/>
</svg>
