<?xml version="1.0" encoding="utf-8"?>
<!-- Generator: Adobe Illustrator 27.8.1, SVG Export Plug-In . SVG Version: 6.00 Build 0)  -->
<svg version="1.1" id="Layer_1" xmlns="http://www.w3.org/2000/svg" xmlns:xlink="http://www.w3.org/1999/xlink" x="0px" y="0px"
	 viewBox="0 0 1200 200" style="enable-background:new 0 0 1200 200;" xml:space="preserve">
<style type="text/css">
	.st0{fill:url(#SVGID_1_);stroke:#480639;stroke-width:2;stroke-miterlimit:10;}
	.st1{fill:url(#SVGID_00000002385828958741001800000000449911935968821920_);stroke:#480639;stroke-width:2;stroke-miterlimit:10;}
	.st2{fill:url(#SVGID_00000026155050654792112930000004052007798770941865_);stroke:#480639;stroke-width:2;stroke-miterlimit:10;}
	.st3{fill:url(#SVGID_00000181076122440480335980000015224112251351803062_);stroke:#480639;stroke-width:2;stroke-miterlimit:10;}
	.st4{fill:url(#SVGID_00000021834698582749103660000007910822593946688170_);stroke:#480639;stroke-width:2;stroke-miterlimit:10;}
	.st5{fill:url(#SVGID_00000183965485697118042370000010071988595721464736_);stroke:#480639;stroke-width:2;stroke-miterlimit:10;}
	.st6{fill:url(#SVGID_00000163785295489365661510000012739875203992449155_);stroke:#480639;stroke-width:2;stroke-miterlimit:10;}
	.st7{fill:url(#SVGID_00000036951553513118401710000017183222144446814618_);stroke:#480639;stroke-width:2;stroke-miterlimit:10;}
	.st8{fill:url(#SVGID_00000020390117794002455680000001760382338872673967_);stroke:#480639;stroke-width:2;stroke-miterlimit:10;}
	.st9{fill:url(#SVGID_00000168836613922440039270000018330252541012264097_);stroke:#480639;stroke-width:2;stroke-miterlimit:10;}
	.st10{fill:url(#SVGID_00000100352543159305873070000008796513686766211995_);stroke:#480639;stroke-width:2;stroke-miterlimit:10;}
	.st11{fill:url(#SVGID_00000136406179662920763100000000328188964521212309_);stroke:#480639;stroke-width:2;stroke-miterlimit:10;}
	.st12{fill:url(#SVGID_00000111187815454345232450000006214918322013858440_);stroke:#480639;stroke-width:2;stroke-miterlimit:10;}
	.st13{fill:url(#SVGID_00000074410197372457212200000002046469203322458774_);stroke:#480639;stroke-width:2;stroke-miterlimit:10;}
	.st14{fill:url(#SVGID_00000140694517878738228060000011453367342022293135_);stroke:#480639;stroke-width:2;stroke-miterlimit:10;}
	.st15{fill:url(#SVGID_00000108998027023830952650000008069952538081178015_);stroke:#480639;stroke-width:2;stroke-miterlimit:10;}
	.st16{fill:url(#SVGID_00000087383294949328147150000017160599327050406815_);stroke:#480639;stroke-width:2;stroke-miterlimit:10;}
	.st17{fill:url(#SVGID_00000076578568102824014720000006813843316558899385_);stroke:#480639;stroke-width:2;stroke-miterlimit:10;}
	.st18{fill:url(#SVGID_00000142165239923656660440000005544804002798118048_);stroke:#480639;stroke-width:2;stroke-miterlimit:10;}
	.st19{fill:url(#SVGID_00000061464998396409667210000003650517808390586760_);stroke:#480639;stroke-width:2;stroke-miterlimit:10;}
	.st20{fill:url(#SVGID_00000003090471300120787620000017182705203573450648_);stroke:#480639;stroke-width:2;stroke-miterlimit:10;}
	.st21{fill:url(#SVGID_00000177449846865111795090000000234439759319622811_);stroke:#480639;stroke-width:2;stroke-miterlimit:10;}
	.st22{fill:url(#SVGID_00000080204539661749920230000011701549112164913798_);stroke:#480639;stroke-width:2;stroke-miterlimit:10;}
	.st23{fill:url(#SVGID_00000000185869229890744040000011166346202171986342_);stroke:#480639;stroke-width:2;stroke-miterlimit:10;}
	.st24{fill:url(#SVGID_00000014634153928210869500000012474833593026655675_);stroke:#480639;stroke-width:2;stroke-miterlimit:10;}
</style>
<linearGradient id="SVGID_1_" gradientUnits="userSpaceOnUse" x1="51.4233" y1="125.7509" x2="51.4233" y2="125.7509">
	<stop  offset="2.159827e-03" style="stop-color:#D5EFFA"/>
	<stop  offset="0.2516" style="stop-color:#6A6EA0"/>
	<stop  offset="0.3531" style="stop-color:#98D8E3"/>
	<stop  offset="0.433" style="stop-color:#8A98BD"/>
	<stop  offset="0.5346" style="stop-color:#8A93BB"/>
	<stop  offset="0.5799" style="stop-color:#434484"/>
	<stop  offset="0.6771" style="stop-color:#565992"/>
	<stop  offset="0.7181" style="stop-color:#94C3D7"/>
	<stop  offset="1" style="stop-color:#292873"/>
</linearGradient>
<path class="st0" d="M51.4,125.8"/>
<linearGradient id="SVGID_00000144297164680850381070000005945073396717300369_" gradientUnits="userSpaceOnUse" x1="62.3709" y1="2.3725" x2="60.3673" y2="237.7971">
	<stop  offset="2.159827e-03" style="stop-color:#D5EFFA"/>
	<stop  offset="0.2516" style="stop-color:#6A6EA0"/>
	<stop  offset="0.3531" style="stop-color:#98D8E3"/>
	<stop  offset="0.433" style="stop-color:#8A98BD"/>
	<stop  offset="0.5346" style="stop-color:#8A93BB"/>
	<stop  offset="0.5799" style="stop-color:#434484"/>
	<stop  offset="0.6771" style="stop-color:#565992"/>
	<stop  offset="0.7181" style="stop-color:#94C3D7"/>
	<stop  offset="1" style="stop-color:#292873"/>
</linearGradient>
<path style="fill:url(#SVGID_00000144297164680850381070000005945073396717300369_);stroke:#480639;stroke-width:2;stroke-miterlimit:10;" d="
	M62.2,74.4c-23.5-0.1-26.4,23.2-26.4,23.2l0,28.4l0.3,0.3l8.7,0l0.5-0.3l0.1-20.7h32.1l0.2,20.5l0.3,0.5l9.2-0.3l0-28.6
	C82,73.4,62.2,74.4,62.2,74.4z M45.6,95.5c0,0,4.2-12,16.2-11.7c0,0,10.8-0.2,15.1,11.7H45.6z"/>
<linearGradient id="SVGID_00000175295853123689054740000008139648958870884015_" gradientUnits="userSpaceOnUse" x1="116.2302" y1="2.8271" x2="114.226" y2="238.3283">
	<stop  offset="2.159827e-03" style="stop-color:#D5EFFA"/>
	<stop  offset="0.2516" style="stop-color:#6A6EA0"/>
	<stop  offset="0.3531" style="stop-color:#98D8E3"/>
	<stop  offset="0.433" style="stop-color:#8A98BD"/>
	<stop  offset="0.5346" style="stop-color:#8A93BB"/>
	<stop  offset="0.5799" style="stop-color:#434484"/>
	<stop  offset="0.6771" style="stop-color:#565992"/>
	<stop  offset="0.7181" style="stop-color:#94C3D7"/>
	<stop  offset="1" style="stop-color:#292873"/>
</linearGradient>
<path style="fill:url(#SVGID_00000175295853123689054740000008139648958870884015_);stroke:#480639;stroke-width:2;stroke-miterlimit:10;" d="
	M98.7,74.4l0.6,0.3l-0.1,37.4c0.6,3.9,4.7,4.5,4.7,4.5l22.9,0.1c3.7-0.2,4.9-5.8,4.9-5.8l0.1-0.4l9.2,0.1v0.5
	c-0.5,14-14,15.1-14,15.1l-23.8,0c-12.8-2.1-13.5-13.7-13.5-13.7V74.7l0.3-0.3H98.7z"/>
<linearGradient id="SVGID_00000128444281292405444820000012645119181568382106_" gradientUnits="userSpaceOnUse" x1="170.4574" y1="3.3748" x2="168.4541" y2="238.7686">
	<stop  offset="2.159827e-03" style="stop-color:#D5EFFA"/>
	<stop  offset="0.2516" style="stop-color:#6A6EA0"/>
	<stop  offset="0.3531" style="stop-color:#98D8E3"/>
	<stop  offset="0.433" style="stop-color:#8A98BD"/>
	<stop  offset="0.5346" style="stop-color:#8A93BB"/>
	<stop  offset="0.5799" style="stop-color:#434484"/>
	<stop  offset="0.6771" style="stop-color:#565992"/>
	<stop  offset="0.7181" style="stop-color:#94C3D7"/>
	<stop  offset="1" style="stop-color:#292873"/>
</linearGradient>
<path style="fill:url(#SVGID_00000128444281292405444820000012645119181568382106_);stroke:#480639;stroke-width:2;stroke-miterlimit:10;" d="
	M195.3,110.9c0.3-3.6-2.2-7.8-2.2-7.8c-4.9-7.5-11.5-7.6-11.5-7.6h-24.5c-14.5,3.6-13.3,15.5-13.3,15.5
	c1.4,15.5,14.7,15.2,14.7,15.2h36.3l0.3-0.3v-7.7l-0.3-0.3l-33.3,0.1c-5.5-0.1-7.4-3.5-7.4-3.5h37.9
	C194.4,114.6,195.3,110.9,195.3,110.9z M154.5,107.1c0,0,1.1-3.4,14.7-3.4c0,0,11.2-0.5,15.5,3.4H154.5z"/>
<linearGradient id="SVGID_00000115474570695571534590000016671017922717996938_" gradientUnits="userSpaceOnUse" x1="224.3887" y1="3.9138" x2="222.3863" y2="239.1953">
	<stop  offset="2.159827e-03" style="stop-color:#D5EFFA"/>
	<stop  offset="0.2516" style="stop-color:#6A6EA0"/>
	<stop  offset="0.3531" style="stop-color:#98D8E3"/>
	<stop  offset="0.433" style="stop-color:#8A98BD"/>
	<stop  offset="0.5346" style="stop-color:#8A93BB"/>
	<stop  offset="0.5799" style="stop-color:#434484"/>
	<stop  offset="0.6771" style="stop-color:#565992"/>
	<stop  offset="0.7181" style="stop-color:#94C3D7"/>
	<stop  offset="1" style="stop-color:#292873"/>
</linearGradient>
<polygon style="fill:url(#SVGID_00000115474570695571534590000016671017922717996938_);stroke:#480639;stroke-width:2;stroke-miterlimit:10;" points="
	197.8,95.9 198.2,95.6 206.8,95.6 207.2,95.9 207.2,97.6 223.5,105.6 239.8,97.6 239.8,95.9 240.1,95.6 248.8,95.6 249.1,95.9 
	249.1,103.6 234.5,111 249.1,118.1 249.1,126 248.8,126.3 240.1,126.3 239.9,126 239.8,124.2 223.5,116.2 207.2,124.3 207.2,126 
	206.8,126.3 198.2,126.3 197.8,125.9 197.8,118.2 212.5,110.9 197.8,103.7 "/>
<linearGradient id="SVGID_00000172401452621005702700000011401082983620115332_" gradientUnits="userSpaceOnUse" x1="277.2618" y1="4.344" x2="275.2585" y2="239.7329">
	<stop  offset="2.159827e-03" style="stop-color:#D5EFFA"/>
	<stop  offset="0.2516" style="stop-color:#6A6EA0"/>
	<stop  offset="0.3531" style="stop-color:#98D8E3"/>
	<stop  offset="0.433" style="stop-color:#8A98BD"/>
	<stop  offset="0.5346" style="stop-color:#8A93BB"/>
	<stop  offset="0.5799" style="stop-color:#434484"/>
	<stop  offset="0.6771" style="stop-color:#565992"/>
	<stop  offset="0.7181" style="stop-color:#94C3D7"/>
	<stop  offset="1" style="stop-color:#292873"/>
</linearGradient>
<path style="fill:url(#SVGID_00000172401452621005702700000011401082983620115332_);stroke:#480639;stroke-width:2;stroke-miterlimit:10;" d="
	M289.4,95.6l-24.1,0c-15,1.7-14.6,15.4-14.6,15.4c0.4,15.2,14.3,15.4,14.3,15.4l36.6,0l0.2-0.2l0.1-0.1v-16.3
	C300.8,98,289.4,95.6,289.4,95.6z M292.4,117.7c-0.6-0.5-1.8-0.8-1.8-0.8l-25-0.1c-4.3-0.1-5.6-4.6-5.6-4.6v-2.3
	c1.6-4.4,5.1-4.8,5.1-4.8h22c4.4,0.5,5.3,4.5,5.3,4.5V117.7z"/>
<linearGradient id="SVGID_00000140702165046393345400000008347597222846467975_" gradientUnits="userSpaceOnUse" x1="331.1749" y1="4.8515" x2="329.172" y2="240.188">
	<stop  offset="2.159827e-03" style="stop-color:#D5EFFA"/>
	<stop  offset="0.2516" style="stop-color:#6A6EA0"/>
	<stop  offset="0.3531" style="stop-color:#98D8E3"/>
	<stop  offset="0.433" style="stop-color:#8A98BD"/>
	<stop  offset="0.5346" style="stop-color:#8A93BB"/>
	<stop  offset="0.5799" style="stop-color:#434484"/>
	<stop  offset="0.6771" style="stop-color:#565992"/>
	<stop  offset="0.7181" style="stop-color:#94C3D7"/>
	<stop  offset="1" style="stop-color:#292873"/>
</linearGradient>
<path style="fill:url(#SVGID_00000140702165046393345400000008347597222846467975_);stroke:#480639;stroke-width:2;stroke-miterlimit:10;" d="
	M314.1,126l-0.3,0.3h-8.8l-0.3-0.3V95.9l0.3-0.3h8.8l0.3,0.2v0.9c0,0,1.4-1.2,4.5-1.2l23.5,0c0,0,11.6,0.4,13.8,14l0,16.5l-0.3,0.3
	h-8.9l-0.4-0.3l0.2-16.3c0,0-0.3-3.1-4.6-4.7h-23c0,0-3.5,0.3-4.9,4.8L314.1,126z"/>
<linearGradient id="SVGID_00000116216881791538457840000013086366815633559200_" gradientUnits="userSpaceOnUse" x1="385.2421" y1="5.3162" x2="383.2387" y2="240.7147">
	<stop  offset="2.159827e-03" style="stop-color:#D5EFFA"/>
	<stop  offset="0.2516" style="stop-color:#6A6EA0"/>
	<stop  offset="0.3531" style="stop-color:#98D8E3"/>
	<stop  offset="0.433" style="stop-color:#8A98BD"/>
	<stop  offset="0.5346" style="stop-color:#8A93BB"/>
	<stop  offset="0.5799" style="stop-color:#434484"/>
	<stop  offset="0.6771" style="stop-color:#565992"/>
	<stop  offset="0.7181" style="stop-color:#94C3D7"/>
	<stop  offset="1" style="stop-color:#292873"/>
</linearGradient>
<path style="fill:url(#SVGID_00000116216881791538457840000013086366815633559200_);stroke:#480639;stroke-width:2;stroke-miterlimit:10;" d="
	M409.6,74.4h-8.8l-0.3,0.3v20.9h-26.9c-15.5,1.3-15,15.9-15,15.9c-0.2,12.5,13.8,14.8,13.8,14.8l37.1,0l0.3-0.3V74.7L409.6,74.4z
	 M400.4,116.6h-27.7c0,0-4.8-1-4.7-5.7c0,0-0.1-5.4,5.7-5.8h26.7V116.6z"/>
<linearGradient id="SVGID_00000147933931919987943640000001440701896775109801_" gradientUnits="userSpaceOnUse" x1="439.1874" y1="5.8097" x2="437.1841" y2="241.1985">
	<stop  offset="2.159827e-03" style="stop-color:#D5EFFA"/>
	<stop  offset="0.2516" style="stop-color:#6A6EA0"/>
	<stop  offset="0.3531" style="stop-color:#98D8E3"/>
	<stop  offset="0.433" style="stop-color:#8A98BD"/>
	<stop  offset="0.5346" style="stop-color:#8A93BB"/>
	<stop  offset="0.5799" style="stop-color:#434484"/>
	<stop  offset="0.6771" style="stop-color:#565992"/>
	<stop  offset="0.7181" style="stop-color:#94C3D7"/>
	<stop  offset="1" style="stop-color:#292873"/>
</linearGradient>
<path style="fill:url(#SVGID_00000147933931919987943640000001440701896775109801_);stroke:#480639;stroke-width:2;stroke-miterlimit:10;" d="
	M463.9,111.3c0.4-3.5-2-8.2-2-8.2c-4.4-6.7-10.8-7.6-10.8-7.6h-24.8c-14.8,2.6-13.8,15.7-13.8,15.7c1.2,14.6,14.2,15.1,14.2,15.1
	h36.8l0.3-0.3v-7.7l-0.3-0.3l-33.5,0c-5.7,0-7-3.3-7-3.3l38-0.2C463.4,114.3,463.9,111.3,463.9,111.3z M423.2,107.3
	c0,0,2-4.1,15.7-3.8c0,0,6.7-0.5,14.5,3.8H423.2z"/>
<linearGradient id="SVGID_00000083071856386604505000000017855110198265470644_" gradientUnits="userSpaceOnUse" x1="493.1198" y1="6.3177" x2="491.117" y2="241.6533">
	<stop  offset="2.159827e-03" style="stop-color:#D5EFFA"/>
	<stop  offset="0.2516" style="stop-color:#6A6EA0"/>
	<stop  offset="0.3531" style="stop-color:#98D8E3"/>
	<stop  offset="0.433" style="stop-color:#8A98BD"/>
	<stop  offset="0.5346" style="stop-color:#8A93BB"/>
	<stop  offset="0.5799" style="stop-color:#434484"/>
	<stop  offset="0.6771" style="stop-color:#565992"/>
	<stop  offset="0.7181" style="stop-color:#94C3D7"/>
	<stop  offset="1" style="stop-color:#292873"/>
</linearGradient>
<path style="fill:url(#SVGID_00000083071856386604505000000017855110198265470644_);stroke:#480639;stroke-width:2;stroke-miterlimit:10;" d="
	M476.1,126l-0.3,0.3l-8.7,0l-0.5-0.3V96l0.3-0.5h8.8l0.3,0.6v0.5c0,0,1.2-0.9,4.7-1.1l23.7,0c0,0,12,0.8,13.4,15.2l-0.3,0.3l-9-0.1
	c0,0-0.1-4.7-4.8-5.9l-22.2,0.1c0,0-4.5,0.3-5.5,4.8L476.1,126z"/>
<linearGradient id="SVGID_00000091720096709232040110000000337704271108885165_" gradientUnits="userSpaceOnUse" x1="573.1633" y1="7.0073" x2="571.1599" y2="242.4112">
	<stop  offset="2.159827e-03" style="stop-color:#D5EFFA"/>
	<stop  offset="0.2516" style="stop-color:#6A6EA0"/>
	<stop  offset="0.3531" style="stop-color:#98D8E3"/>
	<stop  offset="0.433" style="stop-color:#8A98BD"/>
	<stop  offset="0.5346" style="stop-color:#8A93BB"/>
	<stop  offset="0.5799" style="stop-color:#434484"/>
	<stop  offset="0.6771" style="stop-color:#565992"/>
	<stop  offset="0.7181" style="stop-color:#94C3D7"/>
	<stop  offset="1" style="stop-color:#292873"/>
</linearGradient>
<path style="fill:url(#SVGID_00000091720096709232040110000000337704271108885165_);stroke:#480639;stroke-width:2;stroke-miterlimit:10;" d="
	M556.2,126l-0.3,0.3H547l-0.3-0.3l-0.1-38.3c0,0,1.7-12.8,14.7-13.2c0,0,6.4-0.7,11,4.2c0,0,4.4-4.9,11-4.2c0,0,11.8-0.4,14.6,13.6
	l0,38v0.3h-9.1l-0.5-0.5l-0.1-37.3c0,0,0.1-3.8-5.2-4.5c0,0-5.8-0.6-6.1,5.8l0.1,18l-0.3,0.3H568l-0.4-0.4l-0.1-18.2
	c0,0-0.4-5.4-5.7-5.5c0,0-4.4-0.3-5.6,4.6L556.2,126z"/>
<linearGradient id="SVGID_00000031914323638627552500000016764985397717445511_" gradientUnits="userSpaceOnUse" x1="627.3068" y1="7.537" x2="625.3039" y2="242.8775">
	<stop  offset="2.159827e-03" style="stop-color:#D5EFFA"/>
	<stop  offset="0.2516" style="stop-color:#6A6EA0"/>
	<stop  offset="0.3531" style="stop-color:#98D8E3"/>
	<stop  offset="0.433" style="stop-color:#8A98BD"/>
	<stop  offset="0.5346" style="stop-color:#8A93BB"/>
	<stop  offset="0.5799" style="stop-color:#434484"/>
	<stop  offset="0.6771" style="stop-color:#565992"/>
	<stop  offset="0.7181" style="stop-color:#94C3D7"/>
	<stop  offset="1" style="stop-color:#292873"/>
</linearGradient>
<path style="fill:url(#SVGID_00000031914323638627552500000016764985397717445511_);stroke:#480639;stroke-width:2;stroke-miterlimit:10;" d="
	M651.7,116.7l0.3,0.3v9l-0.3,0.3h-36.5c0,0-12.7,0.2-14.5-15.4c0,0,0.5-13.6,13.8-15.3h36.8l0.6,0.3v9l-0.4,0.2l-36.6,0.1
	c0,0-4.5,0.2-4.9,6.1c0,0-0.8,4.4,5.2,5.4L651.7,116.7z"/>
<linearGradient id="SVGID_00000075877445533612941580000002762937951310134912_" gradientUnits="userSpaceOnUse" x1="681.1526" y1="8.0041" x2="679.1495" y2="243.3698">
	<stop  offset="2.159827e-03" style="stop-color:#D5EFFA"/>
	<stop  offset="0.2516" style="stop-color:#6A6EA0"/>
	<stop  offset="0.3531" style="stop-color:#98D8E3"/>
	<stop  offset="0.433" style="stop-color:#8A98BD"/>
	<stop  offset="0.5346" style="stop-color:#8A93BB"/>
	<stop  offset="0.5799" style="stop-color:#434484"/>
	<stop  offset="0.6771" style="stop-color:#565992"/>
	<stop  offset="0.7181" style="stop-color:#94C3D7"/>
	<stop  offset="1" style="stop-color:#292873"/>
</linearGradient>
<path style="fill:url(#SVGID_00000075877445533612941580000002762937951310134912_);stroke:#480639;stroke-width:2;stroke-miterlimit:10;" d="
	M664.2,126l-0.3,0.3H655l-0.3-0.3V74.7l0.3-0.3h8.8l0.3,0.3v20.8h17.3c0,0,12.6-0.1,15.1-15l0-5.9l0.3-0.3h8.8l0.3,0.3v6.9
	c0,0,0.4,9.7-10.7,18.7c0,0,8.9,5.5,10.7,18.8l0,6.8l-0.3,0.3l-9,0l-0.2-0.5l0.1-5.9c0,0-1.2-13.2-15.7-14.8l-16.8,0.2L664.2,126z"
	/>
<linearGradient id="SVGID_00000015335479090293615060000007146556829539118523_" gradientUnits="userSpaceOnUse" x1="714.2702" y1="8.271" x2="712.2664" y2="243.7246">
	<stop  offset="2.159827e-03" style="stop-color:#D5EFFA"/>
	<stop  offset="0.2516" style="stop-color:#6A6EA0"/>
	<stop  offset="0.3531" style="stop-color:#98D8E3"/>
	<stop  offset="0.433" style="stop-color:#8A98BD"/>
	<stop  offset="0.5346" style="stop-color:#8A93BB"/>
	<stop  offset="0.5799" style="stop-color:#434484"/>
	<stop  offset="0.6771" style="stop-color:#565992"/>
	<stop  offset="0.7181" style="stop-color:#94C3D7"/>
	<stop  offset="1" style="stop-color:#292873"/>
</linearGradient>
<polygon style="fill:url(#SVGID_00000015335479090293615060000007146556829539118523_);stroke:#480639;stroke-width:2;stroke-miterlimit:10;" points="
	708.7,95.9 709,95.6 717.7,95.6 718.1,95.9 718.1,126 717.7,126.3 709,126.3 708.7,126 "/>
<linearGradient id="SVGID_00000085963833824875737900000014275142047341846455_" gradientUnits="userSpaceOnUse" x1="713.9999" y1="8.2878" x2="711.9968" y2="243.662">
	<stop  offset="2.159827e-03" style="stop-color:#D5EFFA"/>
	<stop  offset="0.2516" style="stop-color:#6A6EA0"/>
	<stop  offset="0.3531" style="stop-color:#98D8E3"/>
	<stop  offset="0.433" style="stop-color:#8A98BD"/>
	<stop  offset="0.5346" style="stop-color:#8A93BB"/>
	<stop  offset="0.5799" style="stop-color:#434484"/>
	<stop  offset="0.6771" style="stop-color:#565992"/>
	<stop  offset="0.7181" style="stop-color:#94C3D7"/>
	<stop  offset="1" style="stop-color:#292873"/>
</linearGradient>
<polygon style="fill:url(#SVGID_00000085963833824875737900000014275142047341846455_);stroke:#480639;stroke-width:2;stroke-miterlimit:10;" points="
	708.7,75 708.7,83.7 709,84 717.7,84 718.1,83.7 718.1,74.7 717.7,74.4 709,74.4 708.7,74.7 "/>
<linearGradient id="SVGID_00000002371931554174596580000006791669294036238486_" gradientUnits="userSpaceOnUse" x1="747.412" y1="8.5984" x2="745.4086" y2="243.9902">
	<stop  offset="2.159827e-03" style="stop-color:#D5EFFA"/>
	<stop  offset="0.2516" style="stop-color:#6A6EA0"/>
	<stop  offset="0.3531" style="stop-color:#98D8E3"/>
	<stop  offset="0.433" style="stop-color:#8A98BD"/>
	<stop  offset="0.5346" style="stop-color:#8A93BB"/>
	<stop  offset="0.5799" style="stop-color:#434484"/>
	<stop  offset="0.6771" style="stop-color:#565992"/>
	<stop  offset="0.7181" style="stop-color:#94C3D7"/>
	<stop  offset="1" style="stop-color:#292873"/>
</linearGradient>
<path style="fill:url(#SVGID_00000002371931554174596580000006791669294036238486_);stroke:#480639;stroke-width:2;stroke-miterlimit:10;" d="
	M772.2,111.2c0.4-3.8-2-8-2-8c-5-7-11-7.6-11-7.6h-24.2c-14.2,1.7-14.1,15.6-14.1,15.6c1.5,14.3,14.7,15.1,14.7,15.1h36.3l0.3-0.3
	v-7.7l-0.3-0.3l-33.6,0.1c-5.5-0.3-6.9-3.4-6.9-3.4l37.7-0.1C771.5,114.6,772.2,111.2,772.2,111.2z M731.2,107.2
	c0,0,1.2-3.8,15.4-3.6c0,0,8.5-0.7,14.7,3.6H731.2z"/>
<linearGradient id="SVGID_00000044871554327298185840000009405675058328889475_" gradientUnits="userSpaceOnUse" x1="827.1451" y1="9.3091" x2="825.1417" y2="244.7079">
	<stop  offset="2.159827e-03" style="stop-color:#D5EFFA"/>
	<stop  offset="0.2516" style="stop-color:#6A6EA0"/>
	<stop  offset="0.3531" style="stop-color:#98D8E3"/>
	<stop  offset="0.433" style="stop-color:#8A98BD"/>
	<stop  offset="0.5346" style="stop-color:#8A93BB"/>
	<stop  offset="0.5799" style="stop-color:#434484"/>
	<stop  offset="0.6771" style="stop-color:#565992"/>
	<stop  offset="0.7181" style="stop-color:#94C3D7"/>
	<stop  offset="1" style="stop-color:#292873"/>
</linearGradient>
<path style="fill:url(#SVGID_00000044871554327298185840000009405675058328889475_);stroke:#480639;stroke-width:2;stroke-miterlimit:10;" d="
	M810.2,126l-0.3,0.3l-8.6,0l-0.5-0.3V74.7l0.3-0.3h37.1c0,0,8.3-0.4,13,9.7c0,0,3.3,8.8-3.2,16.2c0,0,3.5,3.4,4,8.9L852,126
	l-0.3,0.3l-8.7,0l-0.5-0.4l0.1-16.3c0,0-0.4-4-5.8-4.6h-17.1l-0.3-0.3l0.1-8.8l0.2-0.4h17.5c0,0,5.2-0.3,5.3-5.5
	c0,0,1.1-4.4-4.5-6.2l-27.7,0.1L810.2,126z"/>
<linearGradient id="SVGID_00000085248174713578248920000010130106910734338183_" gradientUnits="userSpaceOnUse" x1="881.3111" y1="9.81" x2="879.3078" y2="245.2024">
	<stop  offset="2.159827e-03" style="stop-color:#D5EFFA"/>
	<stop  offset="0.2516" style="stop-color:#6A6EA0"/>
	<stop  offset="0.3531" style="stop-color:#98D8E3"/>
	<stop  offset="0.433" style="stop-color:#8A98BD"/>
	<stop  offset="0.5346" style="stop-color:#8A93BB"/>
	<stop  offset="0.5799" style="stop-color:#434484"/>
	<stop  offset="0.6771" style="stop-color:#565992"/>
	<stop  offset="0.7181" style="stop-color:#94C3D7"/>
	<stop  offset="1" style="stop-color:#292873"/>
</linearGradient>
<path style="fill:url(#SVGID_00000085248174713578248920000010130106910734338183_);stroke:#480639;stroke-width:2;stroke-miterlimit:10;" d="
	M906,111.2c0.3-4.2-2-8-2-8c-5.5-7.7-11.4-7.6-11.4-7.6h-25c-13.5,3.6-12.9,14.3-12.9,14.3c0.1,15.8,14.4,16.5,14.4,16.5l36.6,0
	l0.3-0.3v-7.7l-0.3-0.3l-33.3,0.2c-7-1.1-7.3-3.6-7.3-3.6h38C905.5,114.1,906,111.2,906,111.2z M865.3,107.2c0,0,1.2-3.8,15.1-3.7
	c0,0,9.6-0.5,15.2,3.7H865.3z"/>
<linearGradient id="SVGID_00000180346386661113914480000007254502596949181082_" gradientUnits="userSpaceOnUse" x1="935.2604" y1="10.3455" x2="933.2581" y2="245.627">
	<stop  offset="2.159827e-03" style="stop-color:#D5EFFA"/>
	<stop  offset="0.2516" style="stop-color:#6A6EA0"/>
	<stop  offset="0.3531" style="stop-color:#98D8E3"/>
	<stop  offset="0.433" style="stop-color:#8A98BD"/>
	<stop  offset="0.5346" style="stop-color:#8A93BB"/>
	<stop  offset="0.5799" style="stop-color:#434484"/>
	<stop  offset="0.6771" style="stop-color:#565992"/>
	<stop  offset="0.7181" style="stop-color:#94C3D7"/>
	<stop  offset="1" style="stop-color:#292873"/>
</linearGradient>
<path style="fill:url(#SVGID_00000180346386661113914480000007254502596949181082_);stroke:#480639;stroke-width:2;stroke-miterlimit:10;" d="
	M909.1,117.9l-0.3,0.3v7.7l0.3,0.3l37,0c0,0,13.5-0.8,14-16c0,0-0.5-2.6-3.4-3h-37.4c0,0,0.6-3.6,9.7-3.8l30.7,0.4l0.3-0.3v-7.7
	l-0.3-0.3l-37.3,0c0,0-10.9,1-13.7,12.5v3.2c0,0-0.1,3.5,3.4,3.4l37.6-0.1c0,0-1.3,2.7-6.6,3.4L909.1,117.9z"/>
<linearGradient id="SVGID_00000085214818441105142420000012742523465542560181_" gradientUnits="userSpaceOnUse" x1="989.2437" y1="10.8135" x2="987.2408" y2="246.1518">
	<stop  offset="2.159827e-03" style="stop-color:#D5EFFA"/>
	<stop  offset="0.2516" style="stop-color:#6A6EA0"/>
	<stop  offset="0.3531" style="stop-color:#98D8E3"/>
	<stop  offset="0.433" style="stop-color:#8A98BD"/>
	<stop  offset="0.5346" style="stop-color:#8A93BB"/>
	<stop  offset="0.5799" style="stop-color:#434484"/>
	<stop  offset="0.6771" style="stop-color:#565992"/>
	<stop  offset="0.7181" style="stop-color:#94C3D7"/>
	<stop  offset="1" style="stop-color:#292873"/>
</linearGradient>
<path style="fill:url(#SVGID_00000085214818441105142420000012742523465542560181_);stroke:#480639;stroke-width:2;stroke-miterlimit:10;" d="
	M963.1,95.6l-0.3,0.3v17.1c0,0,2.2,12.9,14.3,13.4l23.5,0c0,0,1.5,0.2,4-1.1v0.4l0.7,0.6l8.4,0l0.3-0.3V95.9l-0.3-0.3h-8.8l-0.3,0.5
	V112c0,0-0.8,4.3-5.2,4.8l-22.6-0.2c0,0-3.6-0.5-4.7-4.3l0-16.4l-0.3-0.3H963.1z"/>
<linearGradient id="SVGID_00000095313374125214665330000010547350553589546671_" gradientUnits="userSpaceOnUse" x1="1064.222" y1="11.5572" x2="1062.2206" y2="246.724">
	<stop  offset="2.159827e-03" style="stop-color:#D5EFFA"/>
	<stop  offset="0.2516" style="stop-color:#6A6EA0"/>
	<stop  offset="0.3531" style="stop-color:#98D8E3"/>
	<stop  offset="0.433" style="stop-color:#8A98BD"/>
	<stop  offset="0.5346" style="stop-color:#8A93BB"/>
	<stop  offset="0.5799" style="stop-color:#434484"/>
	<stop  offset="0.6771" style="stop-color:#565992"/>
	<stop  offset="0.7181" style="stop-color:#94C3D7"/>
	<stop  offset="1" style="stop-color:#292873"/>
</linearGradient>
<path style="fill:url(#SVGID_00000095313374125214665330000010547350553589546671_);stroke:#480639;stroke-width:2;stroke-miterlimit:10;" d="
	M1026.3,95.9l-0.4-0.3h-8.8l-0.3,0.3V126l0.3,0.3h8.8l0.4-0.4v-16.2c0,0,0.8-4.2,4.8-4.6l22.7,0c0,0,4.4,0.9,4.7,5.1V126l0.3,0.3h9
	l0.3-0.3v-16.2c0,0,1-4.4,5.5-4.6h22c0,0,5,1.2,4.9,5.1V126l0.3,0.3h8.8l0.3-0.3v-16.4c0,0-1.6-13-13.7-14.1h-23.8
	c0,0-4.7,0.4-9.1,4.3c0,0-3.1-3.8-9.1-4.3l-23.6,0c0,0-2.7,0.2-4.4,1.1L1026.3,95.9z"/>
<linearGradient id="SVGID_00000059276734955976088710000000324438324169952424_" gradientUnits="userSpaceOnUse" x1="1139.3373" y1="12.1459" x2="1137.334" y2="247.5372">
	<stop  offset="2.159827e-03" style="stop-color:#D5EFFA"/>
	<stop  offset="0.2516" style="stop-color:#6A6EA0"/>
	<stop  offset="0.3531" style="stop-color:#98D8E3"/>
	<stop  offset="0.433" style="stop-color:#8A98BD"/>
	<stop  offset="0.5346" style="stop-color:#8A93BB"/>
	<stop  offset="0.5799" style="stop-color:#434484"/>
	<stop  offset="0.6771" style="stop-color:#565992"/>
	<stop  offset="0.7181" style="stop-color:#94C3D7"/>
	<stop  offset="1" style="stop-color:#292873"/>
</linearGradient>
<path style="fill:url(#SVGID_00000059276734955976088710000000324438324169952424_);stroke:#480639;stroke-width:2;stroke-miterlimit:10;" d="
	M1164.1,111.2c0.2-4.5-2-8-2-8c-5-7.5-11.6-7.6-11.6-7.6h-24.3c-14.1,3.3-13.5,14.8-13.5,14.8c0.9,14.7,14,15.9,14,15.9h37.1
	l0.3-0.3v-7.7l-0.3-0.3l-34.1-0.1c-4.5,0-6.5-3.4-6.5-3.4l37.9,0.1C1163.6,114.4,1164.1,111.2,1164.1,111.2z M1123.2,107.3
	c0,0,2.4-3.8,14.8-3.7c0,0,9.7,0.1,15.5,3.7H1123.2z"/>
<linearGradient id="SVGID_00000161595442196440988760000012962220233413000630_" gradientUnits="userSpaceOnUse" x1="89.8331" y1="74.6985" x2="89.8331" y2="74.6985">
	<stop  offset="2.159827e-03" style="stop-color:#D5EFFA"/>
	<stop  offset="0.2516" style="stop-color:#6A6EA0"/>
	<stop  offset="0.3531" style="stop-color:#98D8E3"/>
	<stop  offset="0.433" style="stop-color:#8A98BD"/>
	<stop  offset="0.5346" style="stop-color:#8A93BB"/>
	<stop  offset="0.5799" style="stop-color:#434484"/>
	<stop  offset="0.6771" style="stop-color:#565992"/>
	<stop  offset="0.7181" style="stop-color:#94C3D7"/>
	<stop  offset="1" style="stop-color:#292873"/>
</linearGradient>
<path style="fill:url(#SVGID_00000161595442196440988760000012962220233413000630_);stroke:#480639;stroke-width:2;stroke-miterlimit:10;" d="
	M89.8,74.7"/>
<linearGradient id="SVGID_00000154400132174809126450000017892367867047477175_" gradientUnits="userSpaceOnUse" x1="972.2203" y1="95.8594" x2="972.2203" y2="95.8594">
	<stop  offset="2.159827e-03" style="stop-color:#D5EFFA"/>
	<stop  offset="0.2516" style="stop-color:#6A6EA0"/>
	<stop  offset="0.3531" style="stop-color:#98D8E3"/>
	<stop  offset="0.433" style="stop-color:#8A98BD"/>
	<stop  offset="0.5346" style="stop-color:#8A93BB"/>
	<stop  offset="0.5799" style="stop-color:#434484"/>
	<stop  offset="0.6771" style="stop-color:#565992"/>
	<stop  offset="0.7181" style="stop-color:#94C3D7"/>
	<stop  offset="1" style="stop-color:#292873"/>
</linearGradient>
<path style="fill:url(#SVGID_00000154400132174809126450000017892367867047477175_);stroke:#480639;stroke-width:2;stroke-miterlimit:10;" d="
	M972.2,95.9"/>
<linearGradient id="SVGID_00000168101749471827302000000007314387856021916844_" gradientUnits="userSpaceOnUse" x1="972.2203" y1="95.8594" x2="972.2203" y2="95.8594">
	<stop  offset="2.159827e-03" style="stop-color:#D5EFFA"/>
	<stop  offset="0.2516" style="stop-color:#6A6EA0"/>
	<stop  offset="0.3531" style="stop-color:#98D8E3"/>
	<stop  offset="0.433" style="stop-color:#8A98BD"/>
	<stop  offset="0.5346" style="stop-color:#8A93BB"/>
	<stop  offset="0.5799" style="stop-color:#434484"/>
	<stop  offset="0.6771" style="stop-color:#565992"/>
	<stop  offset="0.7181" style="stop-color:#94C3D7"/>
	<stop  offset="1" style="stop-color:#292873"/>
</linearGradient>
<path style="fill:url(#SVGID_00000168101749471827302000000007314387856021916844_);stroke:#480639;stroke-width:2;stroke-miterlimit:10;" d="
	M972.2,95.9"/>
</svg>
