<?xml version="1.0" encoding="utf-8"?>
<!-- Generator: Adobe Illustrator 27.8.1, SVG Export Plug-In . SVG Version: 6.00 Build 0)  -->
<svg version="1.1" id="Layer_1" xmlns="http://www.w3.org/2000/svg" xmlns:xlink="http://www.w3.org/1999/xlink" x="0px" y="0px"
	 viewBox="0 0 1200 200" style="enable-background:new 0 0 1200 200;" xml:space="preserve">
<style type="text/css">
	.st0{fill:url(#SVGID_1_);}
	.st1{opacity:0.5;fill:url(#SVGID_00000025436491619974761120000003477963005428993981_);}
	.st2{opacity:0.5;fill:url(#SVGID_00000101824428648292124690000010357904639037378459_);}
	.st3{opacity:0.5;fill:url(#SVGID_00000078032107738493511670000016327664680849612731_);}
	.st4{opacity:0.5;fill:url(#SVGID_00000169522012046423197460000015417207454241330598_);}
	.st5{opacity:0.5;fill:url(#SVGID_00000112617662426617654340000001075505714996580792_);}
	.st6{opacity:0.5;fill:url(#SVGID_00000020394418523814599040000008527212572319380364_);}
	.st7{opacity:0.5;fill:url(#SVGID_00000011021406730481653420000010166926364080294813_);}
	.st8{opacity:0.5;fill:url(#SVGID_00000039819021160255865070000014687883228880216742_);}
	.st9{opacity:0.5;fill:url(#SVGID_00000134963841071168004720000009629087914843392404_);}
	.st10{opacity:0.5;fill:url(#SVGID_00000121279817137193962080000016993011705564716448_);}
	.st11{opacity:0.5;fill:url(#SVGID_00000005945243066844714150000001073235629783284123_);}
	.st12{opacity:0.5;fill:url(#SVGID_00000146487509710256212070000016127038287522492833_);}
	.st13{opacity:0.5;fill:url(#SVGID_00000116916964957149837930000009793972723514929574_);}
	.st14{opacity:0.5;fill:url(#SVGID_00000044152456705378899140000010307456862056648365_);}
	.st15{opacity:0.5;fill:url(#SVGID_00000108289909879212697190000016715594966083467174_);}
	.st16{opacity:0.5;fill:url(#SVGID_00000150062756439761558840000014853272898856035470_);}
	.st17{opacity:0.5;fill:url(#SVGID_00000031922472231369733690000009139044269473674159_);}
	.st18{opacity:0.5;fill:url(#SVGID_00000082333490748999974390000017199577485761936530_);}
	.st19{opacity:0.5;fill:url(#SVGID_00000010269862865367688000000001719906854853172108_);}
	.st20{opacity:0.5;fill:url(#SVGID_00000032613883582450244960000014957753374981793934_);}
	.st21{opacity:0.5;fill:url(#SVGID_00000057832145979388033860000007401461592522691993_);}
	.st22{opacity:0.5;fill:url(#SVGID_00000047769278779613929250000002288563260816833693_);}
	.st23{opacity:0.5;fill:url(#SVGID_00000018920280293015827650000009451777055634687640_);}
	.st24{opacity:0.5;fill:url(#SVGID_00000103959221696082017400000005781281378262155427_);}
</style>
<linearGradient id="SVGID_1_" gradientUnits="userSpaceOnUse" x1="25.9478" y1="139.1354" x2="25.9478" y2="139.1354">
	<stop  offset="0.176" style="stop-color:#000000;stop-opacity:0"/>
	<stop  offset="0.3985" style="stop-color:#009486;stop-opacity:0"/>
	<stop  offset="0.6857" style="stop-color:#3657A7;stop-opacity:0.1"/>
	<stop  offset="0.973" style="stop-color:#000000;stop-opacity:0.2"/>
</linearGradient>
<path class="st0" d="M25.9,139.1"/>
<linearGradient id="SVGID_00000067929284546030702760000006545264120028279940_" gradientUnits="userSpaceOnUse" x1="36.703" y1="-11.3843" x2="35.8141" y2="260.6157">
	<stop  offset="0.176" style="stop-color:#000000;stop-opacity:0"/>
	<stop  offset="0.3985" style="stop-color:#009486;stop-opacity:0"/>
	<stop  offset="0.6857" style="stop-color:#3657A7;stop-opacity:0.1"/>
	<stop  offset="0.973" style="stop-color:#000000;stop-opacity:0.2"/>
</linearGradient>
<path style="opacity:0.5;fill:url(#SVGID_00000067929284546030702760000006545264120028279940_);" d="M37,70.4
	c-24.2-0.1-27.2,31.1-27.2,31.1l0,38l0.3,0.4l9,0l0.5-0.4l0.1-27.7h33.1l0.2,27.4l0.3,0.7l9.4-0.4l0-38.3C57.4,69,37,70.4,37,70.4z
	 M20,98.7c0,0,4.4-16.1,16.7-15.7c0,0,11.1-0.2,15.5,15.7H20z"/>
<linearGradient id="SVGID_00000070106084778592944830000009627139253594357399_" gradientUnits="userSpaceOnUse" x1="92.3045" y1="-11.2026" x2="91.4156" y2="260.7974">
	<stop  offset="0.176" style="stop-color:#000000;stop-opacity:0"/>
	<stop  offset="0.3985" style="stop-color:#009486;stop-opacity:0"/>
	<stop  offset="0.6857" style="stop-color:#3657A7;stop-opacity:0.1"/>
	<stop  offset="0.973" style="stop-color:#000000;stop-opacity:0.2"/>
</linearGradient>
<path style="opacity:0.5;fill:url(#SVGID_00000070106084778592944830000009627139253594357399_);" d="M74.6,70.4l0.6,0.4l-0.1,50.1
	c0.6,5.3,4.9,6,4.9,6l23.6,0.1c3.8-0.2,5.1-7.7,5.1-7.7l0.1-0.6l9.5,0.1v0.7c-0.5,18.8-14.4,20.3-14.4,20.3l-24.5,0
	c-13.2-2.7-13.9-18.4-13.9-18.4V70.8l0.3-0.4H74.6z"/>
<linearGradient id="SVGID_00000005986702279939534920000014613055413396808348_" gradientUnits="userSpaceOnUse" x1="148.1266" y1="-11.0201" x2="147.2377" y2="260.9799">
	<stop  offset="0.176" style="stop-color:#000000;stop-opacity:0"/>
	<stop  offset="0.3985" style="stop-color:#009486;stop-opacity:0"/>
	<stop  offset="0.6857" style="stop-color:#3657A7;stop-opacity:0.1"/>
	<stop  offset="0.973" style="stop-color:#000000;stop-opacity:0.2"/>
</linearGradient>
<path style="opacity:0.5;fill:url(#SVGID_00000005986702279939534920000014613055413396808348_);" d="M174.2,119.3
	c0.3-4.8-2.2-10.4-2.2-10.4c-5.1-10-11.9-10.2-11.9-10.2h-25.2c-15,4.8-13.7,20.8-13.7,20.8c1.5,20.7,15.1,20.4,15.1,20.4h37.4
	l0.3-0.4v-10.3l-0.3-0.4l-34.4,0.2c-5.6-0.1-7.6-4.7-7.6-4.7h39.1C173.3,124.2,174.2,119.3,174.2,119.3z M132.1,114.2
	c0,0,1.2-4.5,15.2-4.6c0,0,11.5-0.7,16,4.6H132.1z"/>
<linearGradient id="SVGID_00000119092866773030330360000007704964936708383406_" gradientUnits="userSpaceOnUse" x1="203.7173" y1="-10.8385" x2="202.8284" y2="261.1615">
	<stop  offset="0.176" style="stop-color:#000000;stop-opacity:0"/>
	<stop  offset="0.3985" style="stop-color:#009486;stop-opacity:0"/>
	<stop  offset="0.6857" style="stop-color:#3657A7;stop-opacity:0.1"/>
	<stop  offset="0.973" style="stop-color:#000000;stop-opacity:0.2"/>
</linearGradient>
<polygon style="opacity:0.5;fill:url(#SVGID_00000119092866773030330360000007704964936708383406_);" points="176.9,99.1 
	177.2,98.7 186.2,98.7 186.5,99.1 186.5,101.4 203.3,112.1 220.1,101.4 220.1,99.1 220.4,98.7 229.4,98.7 229.7,99.1 229.7,109.5 
	214.6,119.4 229.7,128.9 229.7,139.4 229.4,139.9 220.4,139.9 220.2,139.5 220.1,137.1 203.3,126.4 186.5,137.2 186.5,139.4 
	186.2,139.9 177.2,139.9 176.9,139.3 176.9,129 192,119.3 176.9,109.7 "/>
<linearGradient id="SVGID_00000144319155214229174680000014378503552123227839_" gradientUnits="userSpaceOnUse" x1="258.1864" y1="-10.6605" x2="257.2975" y2="261.3395">
	<stop  offset="0.176" style="stop-color:#000000;stop-opacity:0"/>
	<stop  offset="0.3985" style="stop-color:#009486;stop-opacity:0"/>
	<stop  offset="0.6857" style="stop-color:#3657A7;stop-opacity:0.1"/>
	<stop  offset="0.973" style="stop-color:#000000;stop-opacity:0.2"/>
</linearGradient>
<path style="opacity:0.5;fill:url(#SVGID_00000144319155214229174680000014378503552123227839_);" d="M271.2,98.7l-24.8,0
	c-15.5,2.3-15,20.6-15,20.6c0.4,20.4,14.8,20.6,14.8,20.6l37.7,0l0.2-0.2l0.1-0.2v-21.8C283,102,271.2,98.7,271.2,98.7z
	 M274.3,128.3c-0.7-0.7-1.9-1-1.9-1l-25.8-0.2c-4.4-0.1-5.8-6.2-5.8-6.2v-3.1c1.6-5.9,5.3-6.5,5.3-6.5h22.7c4.5,0.7,5.5,6,5.5,6
	V128.3z"/>
<linearGradient id="SVGID_00000147183642600125139850000005413676759091857818_" gradientUnits="userSpaceOnUse" x1="313.7936" y1="-10.4787" x2="312.9047" y2="261.5213">
	<stop  offset="0.176" style="stop-color:#000000;stop-opacity:0"/>
	<stop  offset="0.3985" style="stop-color:#009486;stop-opacity:0"/>
	<stop  offset="0.6857" style="stop-color:#3657A7;stop-opacity:0.1"/>
	<stop  offset="0.973" style="stop-color:#000000;stop-opacity:0.2"/>
</linearGradient>
<path style="opacity:0.5;fill:url(#SVGID_00000147183642600125139850000005413676759091857818_);" d="M296.7,139.4l-0.3,0.4h-9.1
	l-0.3-0.4V99.1l0.3-0.4h9.1l0.3,0.3v1.3c0,0,1.4-1.7,4.7-1.6l24.2,0c0,0,12,0.6,14.3,18.7l0,22.1l-0.3,0.4h-9.2l-0.4-0.4l0.2-21.8
	c0,0-0.3-4.2-4.7-6.3h-23.7c0,0-3.6,0.4-5,6.5L296.7,139.4z"/>
<linearGradient id="SVGID_00000011730817812474078530000004025953038725528730_" gradientUnits="userSpaceOnUse" x1="369.4928" y1="-10.2967" x2="368.6039" y2="261.7033">
	<stop  offset="0.176" style="stop-color:#000000;stop-opacity:0"/>
	<stop  offset="0.3985" style="stop-color:#009486;stop-opacity:0"/>
	<stop  offset="0.6857" style="stop-color:#3657A7;stop-opacity:0.1"/>
	<stop  offset="0.973" style="stop-color:#000000;stop-opacity:0.2"/>
</linearGradient>
<path style="opacity:0.5;fill:url(#SVGID_00000011730817812474078530000004025953038725528730_);" d="M395.1,70.4H386l-0.3,0.4v27.9
	H358c-16,1.7-15.4,21.3-15.4,21.3c-0.2,16.7,14.2,19.8,14.2,19.8l38.3,0l0.3-0.4V70.8L395.1,70.4z M385.7,126.9h-28.6
	c0,0-4.9-1.4-4.9-7.7c0,0-0.1-7.2,5.9-7.8h27.5V126.9z"/>
<linearGradient id="SVGID_00000183934726255588461510000010607267134656729736_" gradientUnits="userSpaceOnUse" x1="425.1016" y1="-10.115" x2="424.2127" y2="261.885">
	<stop  offset="0.176" style="stop-color:#000000;stop-opacity:0"/>
	<stop  offset="0.3985" style="stop-color:#009486;stop-opacity:0"/>
	<stop  offset="0.6857" style="stop-color:#3657A7;stop-opacity:0.1"/>
	<stop  offset="0.973" style="stop-color:#000000;stop-opacity:0.2"/>
</linearGradient>
<path style="opacity:0.5;fill:url(#SVGID_00000183934726255588461510000010607267134656729736_);" d="M451.1,119.8
	c0.4-4.7-2-11-2-11c-4.5-9-11.1-10.2-11.1-10.2h-25.5c-15.3,3.4-14.3,21-14.3,21c1.2,19.5,14.7,20.2,14.7,20.2h37.9l0.3-0.4v-10.3
	l-0.3-0.4l-34.5,0c-5.9,0-7.2-4.4-7.2-4.4l39.2-0.3C450.6,123.8,451.1,119.8,451.1,119.8z M409.1,114.4c0,0,2.1-5.5,16.2-5
	c0,0,6.9-0.7,14.9,5H409.1z"/>
<linearGradient id="SVGID_00000129897300053924785740000016642459835698626490_" gradientUnits="userSpaceOnUse" x1="480.7617" y1="-9.9331" x2="479.8728" y2="262.0669">
	<stop  offset="0.176" style="stop-color:#000000;stop-opacity:0"/>
	<stop  offset="0.3985" style="stop-color:#009486;stop-opacity:0"/>
	<stop  offset="0.6857" style="stop-color:#3657A7;stop-opacity:0.1"/>
	<stop  offset="0.973" style="stop-color:#000000;stop-opacity:0.2"/>
</linearGradient>
<path style="opacity:0.5;fill:url(#SVGID_00000129897300053924785740000016642459835698626490_);" d="M463.7,139.4l-0.3,0.4l-9,0
	l-0.5-0.4V99.3l0.3-0.6h9.1l0.3,0.8v0.7c0,0,1.3-1.3,4.8-1.5l24.5,0c0,0,12.4,1,13.8,20.3l-0.3,0.4l-9.3-0.1c0,0-0.1-6.3-4.9-7.9
	l-22.9,0.1c0,0-4.6,0.4-5.6,6.5L463.7,139.4z"/>
<linearGradient id="SVGID_00000037650878211531550240000011671117599240627596_" gradientUnits="userSpaceOnUse" x1="563.2553" y1="-9.6635" x2="562.3664" y2="262.3365">
	<stop  offset="0.176" style="stop-color:#000000;stop-opacity:0"/>
	<stop  offset="0.3985" style="stop-color:#009486;stop-opacity:0"/>
	<stop  offset="0.6857" style="stop-color:#3657A7;stop-opacity:0.1"/>
	<stop  offset="0.973" style="stop-color:#000000;stop-opacity:0.2"/>
</linearGradient>
<path style="opacity:0.5;fill:url(#SVGID_00000037650878211531550240000011671117599240627596_);" d="M546.2,139.4l-0.3,0.4h-9.1
	l-0.3-0.4l-0.1-51.3c0,0,1.8-17.2,15.2-17.7c0,0,6.6-0.9,11.3,5.6c0,0,4.6-6.6,11.3-5.6c0,0,12.2-0.5,15.1,18.2l0,50.8v0.4H580
	l-0.5-0.7l-0.1-50c0,0,0.1-5-5.4-6c0,0-6-0.8-6.3,7.8l0.1,24.1l-0.3,0.4h-9.1l-0.4-0.5l-0.1-24.3c0,0-0.4-7.3-5.8-7.4
	c0,0-4.6-0.4-5.8,6.2L546.2,139.4z"/>
<linearGradient id="SVGID_00000087408185996587116910000010458748293764770209_" gradientUnits="userSpaceOnUse" x1="619.017" y1="-9.4813" x2="618.1281" y2="262.5187">
	<stop  offset="0.176" style="stop-color:#000000;stop-opacity:0"/>
	<stop  offset="0.3985" style="stop-color:#009486;stop-opacity:0"/>
	<stop  offset="0.6857" style="stop-color:#3657A7;stop-opacity:0.1"/>
	<stop  offset="0.973" style="stop-color:#000000;stop-opacity:0.2"/>
</linearGradient>
<path style="opacity:0.5;fill:url(#SVGID_00000087408185996587116910000010458748293764770209_);" d="M644.7,127l0.3,0.4v12
	l-0.3,0.4h-37.6c0,0-13.1,0.2-14.9-20.6c0,0,0.5-18.2,14.2-20.5h38l0.7,0.4v12l-0.4,0.3l-37.7,0.2c0,0-4.7,0.3-5,8.2
	c0,0-0.8,5.9,5.4,7.2L644.7,127z"/>
<linearGradient id="SVGID_00000113332532182291907360000006404165238082655371_" gradientUnits="userSpaceOnUse" x1="674.6013" y1="-9.2996" x2="673.7124" y2="262.7004">
	<stop  offset="0.176" style="stop-color:#000000;stop-opacity:0"/>
	<stop  offset="0.3985" style="stop-color:#009486;stop-opacity:0"/>
	<stop  offset="0.6857" style="stop-color:#3657A7;stop-opacity:0.1"/>
	<stop  offset="0.973" style="stop-color:#000000;stop-opacity:0.2"/>
</linearGradient>
<path style="opacity:0.5;fill:url(#SVGID_00000113332532182291907360000006404165238082655371_);" d="M657.6,139.4l-0.3,0.4h-9.1
	l-0.3-0.4V70.8l0.3-0.4h9.1l0.3,0.4v27.9h17.8c0,0,13-0.2,15.5-20l0-7.8l0.3-0.4h9.1l0.3,0.4v9.3c0,0,0.5,13-11,25.1
	c0,0,9.2,7.4,11,25.2l0,9.2l-0.3,0.4l-9.3,0l-0.2-0.6l0.1-8c0,0-1.3-17.6-16.1-19.9l-17.3,0.3L657.6,139.4z"/>
<linearGradient id="SVGID_00000139286184117040589720000010415865002778113706_" gradientUnits="userSpaceOnUse" x1="708.6925" y1="-9.1882" x2="707.8036" y2="262.8118">
	<stop  offset="0.176" style="stop-color:#000000;stop-opacity:0"/>
	<stop  offset="0.3985" style="stop-color:#009486;stop-opacity:0"/>
	<stop  offset="0.6857" style="stop-color:#3657A7;stop-opacity:0.1"/>
	<stop  offset="0.973" style="stop-color:#000000;stop-opacity:0.2"/>
</linearGradient>
<polygon style="opacity:0.5;fill:url(#SVGID_00000139286184117040589720000010415865002778113706_);" points="703.5,99.1 
	703.8,98.7 712.8,98.7 713.1,99.1 713.1,139.4 712.8,139.9 703.8,139.9 703.5,139.4 "/>
<linearGradient id="SVGID_00000133530097993775298760000008091662216097638552_" gradientUnits="userSpaceOnUse" x1="708.5536" y1="-9.1887" x2="707.6647" y2="262.8113">
	<stop  offset="0.176" style="stop-color:#000000;stop-opacity:0"/>
	<stop  offset="0.3985" style="stop-color:#009486;stop-opacity:0"/>
	<stop  offset="0.6857" style="stop-color:#3657A7;stop-opacity:0.1"/>
	<stop  offset="0.973" style="stop-color:#000000;stop-opacity:0.2"/>
</linearGradient>
<polygon style="opacity:0.5;fill:url(#SVGID_00000133530097993775298760000008091662216097638552_);" points="703.5,71.3 
	703.5,82.8 703.8,83.2 712.8,83.2 713.1,82.8 713.1,70.8 712.8,70.4 703.8,70.4 703.5,70.8 "/>
<linearGradient id="SVGID_00000152957748411414337610000001154158999521157556_" gradientUnits="userSpaceOnUse" x1="742.822" y1="-9.0767" x2="741.9331" y2="262.9233">
	<stop  offset="0.176" style="stop-color:#000000;stop-opacity:0"/>
	<stop  offset="0.3985" style="stop-color:#009486;stop-opacity:0"/>
	<stop  offset="0.6857" style="stop-color:#3657A7;stop-opacity:0.1"/>
	<stop  offset="0.973" style="stop-color:#000000;stop-opacity:0.2"/>
</linearGradient>
<path style="opacity:0.5;fill:url(#SVGID_00000152957748411414337610000001154158999521157556_);" d="M768.8,119.6
	c0.5-5.1-2-10.8-2-10.8c-5.2-9.4-11.3-10.1-11.3-10.1h-25c-14.6,2.3-14.6,20.9-14.6,20.9c1.6,19.1,15.2,20.2,15.2,20.2h37.4l0.3-0.4
	v-10.3l-0.3-0.4l-34.7,0.1c-5.6-0.3-7.1-4.5-7.1-4.5l38.9-0.2C768.1,124.2,768.8,119.6,768.8,119.6z M726.7,114.3
	c0,0,1.3-5.1,15.8-4.8c0,0,8.8-0.9,15.2,4.8H726.7z"/>
<linearGradient id="SVGID_00000011740507442195098190000000594111551728993678_" gradientUnits="userSpaceOnUse" x1="825.0919" y1="-8.8078" x2="824.2031" y2="263.1922">
	<stop  offset="0.176" style="stop-color:#000000;stop-opacity:0"/>
	<stop  offset="0.3985" style="stop-color:#009486;stop-opacity:0"/>
	<stop  offset="0.6857" style="stop-color:#3657A7;stop-opacity:0.1"/>
	<stop  offset="0.973" style="stop-color:#000000;stop-opacity:0.2"/>
</linearGradient>
<path style="opacity:0.5;fill:url(#SVGID_00000011740507442195098190000000594111551728993678_);" d="M808.1,139.4l-0.3,0.4l-8.9,0
	l-0.6-0.4V70.8l0.3-0.4h38.2c0,0,8.6-0.6,13.4,13c0,0,3.4,11.8-3.3,21.7c0,0,3.7,4.6,4.2,11.9l0.1,22.4l-0.3,0.4l-9,0l-0.5-0.5
	l0.1-21.8c0,0-0.4-5.4-5.9-6.1h-17.6l-0.3-0.4l0.1-11.8l0.2-0.5h18c0,0,5.3-0.3,5.5-7.3c0,0,1.2-5.9-4.7-8.3l-28.6,0.1L808.1,139.4z
	"/>
<linearGradient id="SVGID_00000148656840054390993500000006957534714441555343_" gradientUnits="userSpaceOnUse" x1="880.8505" y1="-8.6256" x2="879.9615" y2="263.3744">
	<stop  offset="0.176" style="stop-color:#000000;stop-opacity:0"/>
	<stop  offset="0.3985" style="stop-color:#009486;stop-opacity:0"/>
	<stop  offset="0.6857" style="stop-color:#3657A7;stop-opacity:0.1"/>
	<stop  offset="0.973" style="stop-color:#000000;stop-opacity:0.2"/>
</linearGradient>
<path style="opacity:0.5;fill:url(#SVGID_00000148656840054390993500000006957534714441555343_);" d="M906.8,119.6
	c0.3-5.6-2-10.8-2-10.8C899.1,98.5,893,98.7,893,98.7h-25.7c-14,4.9-13.3,19.1-13.3,19.1c0.1,21.2,14.8,22.1,14.8,22.1l37.7,0
	l0.3-0.4v-10.3l-0.3-0.4l-34.3,0.2c-7.2-1.4-7.5-4.8-7.5-4.8h39.1C906.3,123.5,906.8,119.6,906.8,119.6z M864.9,114.3
	c0,0,1.2-5,15.5-4.9c0,0,9.9-0.7,15.7,4.9H864.9z"/>
<linearGradient id="SVGID_00000154404987487012787860000002646419470017018777_" gradientUnits="userSpaceOnUse" x1="936.5005" y1="-8.4438" x2="935.6116" y2="263.5562">
	<stop  offset="0.176" style="stop-color:#000000;stop-opacity:0"/>
	<stop  offset="0.3985" style="stop-color:#009486;stop-opacity:0"/>
	<stop  offset="0.6857" style="stop-color:#3657A7;stop-opacity:0.1"/>
	<stop  offset="0.973" style="stop-color:#000000;stop-opacity:0.2"/>
</linearGradient>
<path style="opacity:0.5;fill:url(#SVGID_00000154404987487012787860000002646419470017018777_);" d="M910,128.7l-0.3,0.4v10.3
	l0.3,0.4l38.2,0c0,0,14-1,14.4-21.5c0,0-0.5-3.5-3.5-3.9h-38.5c0,0,0.6-4.8,10-5l31.6,0.5l0.3-0.4V99.1l-0.3-0.4l-38.4,0
	c0,0-11.2,1.3-14.1,16.7v4.3c0,0-0.1,4.7,3.5,4.6l38.7-0.2c0,0-1.3,3.6-6.8,4.6L910,128.7z"/>
<linearGradient id="SVGID_00000154399897338827699440000010280879238987421624_" gradientUnits="userSpaceOnUse" x1="992.1389" y1="-8.2619" x2="991.25" y2="263.7381">
	<stop  offset="0.176" style="stop-color:#000000;stop-opacity:0"/>
	<stop  offset="0.3985" style="stop-color:#009486;stop-opacity:0"/>
	<stop  offset="0.6857" style="stop-color:#3657A7;stop-opacity:0.1"/>
	<stop  offset="0.973" style="stop-color:#000000;stop-opacity:0.2"/>
</linearGradient>
<path style="opacity:0.5;fill:url(#SVGID_00000154399897338827699440000010280879238987421624_);" d="M965.6,98.7l-0.3,0.4V122
	c0,0,2.2,17.2,14.7,17.9l24.2,0c0,0,1.5,0.2,4.2-1.4v0.6l0.7,0.9l8.7,0l0.3-0.4V99.1l-0.3-0.4h-9.1l-0.3,0.7v21.3
	c0,0-0.8,5.8-5.3,6.4l-23.3-0.3c0,0-3.8-0.7-4.8-5.7l0-22l-0.3-0.4H965.6z"/>
<linearGradient id="SVGID_00000119111028419536587750000001690181359644207492_" gradientUnits="userSpaceOnUse" x1="1069.4281" y1="-8.0093" x2="1068.5392" y2="263.9907">
	<stop  offset="0.176" style="stop-color:#000000;stop-opacity:0"/>
	<stop  offset="0.3985" style="stop-color:#009486;stop-opacity:0"/>
	<stop  offset="0.6857" style="stop-color:#3657A7;stop-opacity:0.1"/>
	<stop  offset="0.973" style="stop-color:#000000;stop-opacity:0.2"/>
</linearGradient>
<path style="opacity:0.5;fill:url(#SVGID_00000119111028419536587750000001690181359644207492_);" d="M1030.8,99.2l-0.4-0.5h-9.1
	l-0.3,0.4v40.3l0.3,0.4h9.1l0.4-0.5v-21.6c0,0,0.8-5.6,5-6.1l23.4-0.1c0,0,4.6,1.2,4.9,6.8v21.1l0.3,0.4h9.3l0.3-0.4v-21.7
	c0,0,1-5.8,5.7-6.2h22.6c0,0,5.2,1.6,5,6.8v21.1l0.3,0.4h9.1l0.3-0.4v-21.9c0,0-1.6-17.3-14.1-18.9h-24.6c0,0-4.8,0.6-9.4,5.8
	c0,0-3.1-5.1-9.4-5.8l-24.3,0c0,0-2.8,0.3-4.5,1.4L1030.8,99.2z"/>
<linearGradient id="SVGID_00000183935409507519180100000018097722345572952749_" gradientUnits="userSpaceOnUse" x1="1146.8257" y1="-7.7564" x2="1145.9369" y2="264.2436">
	<stop  offset="0.176" style="stop-color:#000000;stop-opacity:0"/>
	<stop  offset="0.3985" style="stop-color:#009486;stop-opacity:0"/>
	<stop  offset="0.6857" style="stop-color:#3657A7;stop-opacity:0.1"/>
	<stop  offset="0.973" style="stop-color:#000000;stop-opacity:0.2"/>
</linearGradient>
<path style="opacity:0.5;fill:url(#SVGID_00000183935409507519180100000018097722345572952749_);" d="M1172.8,119.6
	c0.2-6-2-10.8-2-10.8c-5.1-10-12-10.2-12-10.2h-25c-14.6,4.4-13.9,19.9-13.9,19.9c0.9,19.6,14.4,21.3,14.4,21.3h38.2l0.3-0.4v-10.3
	l-0.3-0.4l-35.2-0.1c-4.7,0-6.7-4.6-6.7-4.6l39.1,0.2C1172.3,124,1172.8,119.6,1172.8,119.6z M1130.7,114.4c0,0,2.4-5.1,15.2-4.9
	c0,0,10,0.1,16,4.9H1130.7z"/>
<linearGradient id="SVGID_00000130610160766922457630000010904570074016049852_" gradientUnits="userSpaceOnUse" x1="65.5384" y1="70.7958" x2="65.5384" y2="70.7958">
	<stop  offset="0.176" style="stop-color:#000000;stop-opacity:0"/>
	<stop  offset="0.3985" style="stop-color:#009486;stop-opacity:0"/>
	<stop  offset="0.6857" style="stop-color:#3657A7;stop-opacity:0.1"/>
	<stop  offset="0.973" style="stop-color:#000000;stop-opacity:0.2"/>
</linearGradient>
<path style="opacity:0.5;fill:url(#SVGID_00000130610160766922457630000010904570074016049852_);" d="M65.5,70.8"/>
<linearGradient id="SVGID_00000129910076923302564920000000405000548491307427_" gradientUnits="userSpaceOnUse" x1="975.0535" y1="99.122" x2="975.0535" y2="99.122">
	<stop  offset="0.176" style="stop-color:#000000;stop-opacity:0"/>
	<stop  offset="0.3985" style="stop-color:#009486;stop-opacity:0"/>
	<stop  offset="0.6857" style="stop-color:#3657A7;stop-opacity:0.1"/>
	<stop  offset="0.973" style="stop-color:#000000;stop-opacity:0.2"/>
</linearGradient>
<path style="opacity:0.5;fill:url(#SVGID_00000129910076923302564920000000405000548491307427_);" d="M975.1,99.1"/>
<linearGradient id="SVGID_00000087405114998242083450000000919124992578486202_" gradientUnits="userSpaceOnUse" x1="975.0535" y1="99.122" x2="975.0535" y2="99.122">
	<stop  offset="0.176" style="stop-color:#000000;stop-opacity:0"/>
	<stop  offset="0.3985" style="stop-color:#009486;stop-opacity:0"/>
	<stop  offset="0.6857" style="stop-color:#3657A7;stop-opacity:0.1"/>
	<stop  offset="0.973" style="stop-color:#000000;stop-opacity:0.2"/>
</linearGradient>
<path style="opacity:0.5;fill:url(#SVGID_00000087405114998242083450000000919124992578486202_);" d="M975.1,99.1"/>
</svg>
