<?xml version="1.0" encoding="utf-8"?>
<!-- Generator: Adobe Illustrator 27.8.1, SVG Export Plug-In . SVG Version: 6.00 Build 0)  -->
<svg version="1.1" id="Layer_1" xmlns="http://www.w3.org/2000/svg" xmlns:xlink="http://www.w3.org/1999/xlink" x="0px" y="0px"
	 viewBox="0 0 1200 1600" style="enable-background:new 0 0 1200 1600;" xml:space="preserve">
<style type="text/css">
	.st0{fill:url(#SVGID_1_);}
	.st1{fill:url(#SVGID_00000183234787437171857570000007118637242134138539_);}
	.st2{fill:url(#SVGID_00000110446211325371542980000013651593395141678471_);}
	.st3{fill:url(#SVGID_00000134936463898797645620000013197519569310545827_);}
	.st4{fill:url(#SVGID_00000000919379000313128960000006646162089766241153_);}
	.st5{fill:url(#SVGID_00000170277176474337549810000015420562570628883628_);}
	.st6{fill:url(#SVGID_00000056400384340201457420000010912453965927200694_);}
	.st7{fill:url(#SVGID_00000033346383327658587520000007185498311065100455_);}
	.st8{fill:url(#SVGID_00000032642938678226721250000000462017450458203817_);}
	.st9{fill:url(#SVGID_00000008865287691380715220000000910035964370607489_);}
	.st10{fill:url(#SVGID_00000047782972130992804190000002526587554097488033_);}
	.st11{fill:url(#SVGID_00000157297090906015800900000000283685337337040296_);}
	.st12{fill:url(#SVGID_00000106850388843928897350000006045098930652155287_);}
	.st13{fill:url(#SVGID_00000117647699751137803750000006180123529053498781_);}
	.st14{fill:url(#SVGID_00000182502811988048039020000012838441508882732682_);}
	.st15{fill:url(#SVGID_00000087373013888869503230000007039720766704598185_);}
	.st16{fill:url(#SVGID_00000006671320725704667130000002642473039402045100_);}
	.st17{fill:url(#SVGID_00000029730762811569003320000009732103286330493830_);}
	.st18{fill:url(#SVGID_00000031901000135438394650000002484391799711586451_);}
	.st19{fill:url(#SVGID_00000119086735997446052160000005978106990961446292_);}
	.st20{fill:url(#SVGID_00000160908392478239137620000003422467933773285278_);}
	.st21{fill:url(#SVGID_00000131344316537315413800000018391276438767549364_);}
	.st22{fill:url(#SVGID_00000029034490255108273230000001975999045673719466_);}
	.st23{fill:url(#SVGID_00000129910784536201840620000012646137623437612681_);}
	.st24{fill:url(#SVGID_00000103245712476903281830000006527688032183921049_);}
	.st25{fill:url(#SVGID_00000163773253089256300680000000262475190593973438_);}
	.st26{fill:url(#SVGID_00000164497907794773778130000005782069923053190799_);}
	.st27{fill:url(#SVGID_00000044857599443469773430000000978193116821776033_);}
	.st28{fill:url(#SVGID_00000037658921533008644370000009596546086877033354_);}
	.st29{fill:url(#SVGID_00000090255872215318398580000007649728091586339235_);}
	.st30{fill:url(#SVGID_00000170261636798116639760000008719142553967097987_);}
	.st31{fill:url(#SVGID_00000093894045363693140190000012656406466209923758_);}
	.st32{fill:url(#SVGID_00000158744071645547348470000005684382985015791798_);}
	.st33{fill:url(#SVGID_00000012447548884634161180000006147382367925299901_);}
	.st34{fill:url(#SVGID_00000106132031051309166650000004286514538358486453_);}
	.st35{fill:url(#SVGID_00000034810870188579798140000002254434438423747206_);}
	.st36{fill:url(#SVGID_00000039850804788452703850000013405520354651325056_);}
	.st37{fill:url(#SVGID_00000136404111606600203830000006468324323075961277_);}
	.st38{fill:url(#SVGID_00000121274365971335726210000012125312307779774368_);}
	.st39{fill:url(#SVGID_00000018929171863660572420000015232091831698239370_);}
	.st40{fill:url(#SVGID_00000099636602460669193930000010306708883487570322_);}
	.st41{fill:url(#SVGID_00000154426825872939912780000009761336029248487603_);}
	.st42{fill:url(#SVGID_00000101082606074247593960000009212654006913383589_);}
	.st43{fill:url(#SVGID_00000121977768398658715260000009230260604874364847_);}
	.st44{fill:url(#SVGID_00000127015167233816925100000013140694862366918302_);}
	.st45{fill:url(#SVGID_00000101792875301174816930000013924157251887114127_);}
	.st46{fill:url(#SVGID_00000139972537988435031670000010132669199386179737_);}
	.st47{fill:url(#SVGID_00000110456737029742715210000016882053654233691062_);}
	.st48{fill:url(#SVGID_00000135682505247125951370000009964788435893930124_);}
	.st49{fill:url(#SVGID_00000139295633378750757030000015976214636991552153_);}
	.st50{fill:url(#SVGID_00000116227506908771095870000015120526160828332457_);}
	.st51{fill:url(#SVGID_00000181053672032148297010000009539354502638724773_);}
</style>
<g id="Layer_4">
	
		<linearGradient id="SVGID_1_" gradientUnits="userSpaceOnUse" x1="1093.286" y1="128.8111" x2="1161.286" y2="324.8111" gradientTransform="matrix(1 0 0 1 0 575.4633)">
		<stop  offset="0" style="stop-color:#78CBBD"/>
		<stop  offset="1" style="stop-color:#22743A"/>
	</linearGradient>
	<polyline class="st0" points="1200,742.3 1156.2,731.2 1043.8,806.2 1043.8,831.2 1100,887.5 1200,795.7 	"/>
	
		<linearGradient id="SVGID_00000009554766888788616320000006252474811334574724_" gradientUnits="userSpaceOnUse" x1="881.1789" y1="44.1993" x2="992.7572" y2="365.8077" gradientTransform="matrix(1 0 0 1 0 575.4633)">
		<stop  offset="0" style="stop-color:#78CBBD"/>
		<stop  offset="1" style="stop-color:#22743A"/>
	</linearGradient>
	<polyline style="fill:url(#SVGID_00000009554766888788616320000006252474811334574724_);" points="993.8,706.2 937.5,687.5 
		862.5,706.2 843.8,750 918.8,806.2 968.8,893.8 1018.8,868.8 975,743.8 	"/>
	
		<linearGradient id="SVGID_00000060732071554232244110000000666108275563840435_" gradientUnits="userSpaceOnUse" x1="562.7661" y1="-4.8434" x2="670.5385" y2="305.7947" gradientTransform="matrix(1 0 0 1 0 575.4633)">
		<stop  offset="0" style="stop-color:#78CBBD"/>
		<stop  offset="1" style="stop-color:#22743A"/>
	</linearGradient>
	<polyline style="fill:url(#SVGID_00000060732071554232244110000000666108275563840435_);" points="643.8,650 606.2,656.2 
		575,643.8 518.8,693.8 568.8,731.2 618.8,743.8 675,800 731.2,806.2 625,681.2 	"/>
	
		<linearGradient id="SVGID_00000115499671553269638000000000391614690119202984_" gradientUnits="userSpaceOnUse" x1="360.6577" y1="39.8177" x2="411.1502" y2="185.355" gradientTransform="matrix(1 0 0 1 0 575.4633)">
		<stop  offset="0" style="stop-color:#78CBBD"/>
		<stop  offset="1" style="stop-color:#22743A"/>
	</linearGradient>
	<path style="fill:url(#SVGID_00000115499671553269638000000000391614690119202984_);" d="M418.8,725l50-56.2l12.5-18.8l-68.8-6.2
		l-31.2,18.8c0,0-25,18.8-37.5,18.8H275l12.5,31.2l18.8,12.5l81.2,18.8"/>
	
		<linearGradient id="SVGID_00000097478900140616080210000008530199914079834297_" gradientUnits="userSpaceOnUse" x1="0" y1="162.8367" x2="0" y2="162.8367" gradientTransform="matrix(1 0 0 1 0 575.4633)">
		<stop  offset="0" style="stop-color:#78CBBD"/>
		<stop  offset="1" style="stop-color:#22743A"/>
	</linearGradient>
	<path style="fill:url(#SVGID_00000097478900140616080210000008530199914079834297_);" d="M0,738.3"/>
	
		<linearGradient id="SVGID_00000078752569742942993680000017981011557777238400_" gradientUnits="userSpaceOnUse" x1="534.4604" y1="34.414" x2="686.509" y2="472.6715" gradientTransform="matrix(1 0 0 1 0 575.4633)">
		<stop  offset="0" style="stop-color:#78CBBD"/>
		<stop  offset="1" style="stop-color:#22743A"/>
	</linearGradient>
	<polyline style="fill:url(#SVGID_00000078752569742942993680000017981011557777238400_);" points="506.2,737.5 618.8,843.8 
		706.2,887.5 750,950 543.8,900 531.2,812.5 481.2,737.5 	"/>
	
		<linearGradient id="SVGID_00000173873749440762740320000012624775161922424987_" gradientUnits="userSpaceOnUse" x1="924.801" y1="353.119" x2="954.551" y2="438.869" gradientTransform="matrix(1 0 0 1 0 575.4633)">
		<stop  offset="0" style="stop-color:#78CBBD"/>
		<stop  offset="1" style="stop-color:#22743A"/>
	</linearGradient>
	<polyline style="fill:url(#SVGID_00000173873749440762740320000012624775161922424987_);" points="918.8,993.8 1025,975 
		1062.5,931.2 1068.8,900 800,1012.5 	"/>
	
		<linearGradient id="SVGID_00000098916793082300597820000017852501085559674273_" gradientUnits="userSpaceOnUse" x1="164.1784" y1="84.7774" x2="295.6746" y2="463.7958" gradientTransform="matrix(1 0 0 1 0 575.4633)">
		<stop  offset="0" style="stop-color:#78CBBD"/>
		<stop  offset="1" style="stop-color:#22743A"/>
	</linearGradient>
	<polyline style="fill:url(#SVGID_00000098916793082300597820000017852501085559674273_);" points="381.2,943.8 300,825 
		212.5,787.5 87.5,781.2 150,818.8 250,843.8 262.5,887.5 	"/>
	
		<linearGradient id="SVGID_00000016764754580029566480000003029444963746355623_" gradientUnits="userSpaceOnUse" x1="72.3634" y1="66.4283" x2="118.5091" y2="199.4366" gradientTransform="matrix(1 0 0 1 0 575.4633)">
		<stop  offset="0" style="stop-color:#78CBBD"/>
		<stop  offset="1" style="stop-color:#22743A"/>
	</linearGradient>
	<path style="fill:url(#SVGID_00000016764754580029566480000003029444963746355623_);" d="M200,668.8c0,0-106.2,93.8-112.5,93.8
		S0,774.3,0,774.3v-36l112.5-50.8l50-43.8"/>
	
		<linearGradient id="SVGID_00000115504259954376782050000009470474501422432142_" gradientUnits="userSpaceOnUse" x1="350.5957" y1="98.6653" x2="443.9053" y2="367.6169" gradientTransform="matrix(1 0 0 1 0 575.4633)">
		<stop  offset="0" style="stop-color:#78CBBD"/>
		<stop  offset="1" style="stop-color:#22743A"/>
	</linearGradient>
	<polyline style="fill:url(#SVGID_00000115504259954376782050000009470474501422432142_);" points="325,750 331.2,818.8 
		412.5,856.2 487.5,881.2 481.2,850 400,806.2 356.2,750 	"/>
	
		<linearGradient id="SVGID_00000183220985792870514240000008105209484960963731_" gradientUnits="userSpaceOnUse" x1="496.0714" y1="250.3455" x2="560.202" y2="435.1924" gradientTransform="matrix(1 0 0 1 0 575.4633)">
		<stop  offset="0" style="stop-color:#78CBBD"/>
		<stop  offset="1" style="stop-color:#22743A"/>
	</linearGradient>
	<polyline style="fill:url(#SVGID_00000183220985792870514240000008105209484960963731_);" points="450,962.5 512.5,918.8 
		537.5,912.5 625,962.5 650,1000 575,1006.2 493.8,987.5 	"/>
	
		<linearGradient id="SVGID_00000178187657098363454640000010093744703190698639_" gradientUnits="userSpaceOnUse" x1="750.3076" y1="78.0466" x2="849.7068" y2="364.5505" gradientTransform="matrix(1 0 0 1 0 575.4633)">
		<stop  offset="0" style="stop-color:#78CBBD"/>
		<stop  offset="1" style="stop-color:#22743A"/>
	</linearGradient>
	<polyline style="fill:url(#SVGID_00000178187657098363454640000010093744703190698639_);" points="781.2,918.8 762.5,831.2 
		768.8,800 843.8,787.5 868.8,818.8 912.5,950 856.2,962.5 800,937.5 	"/>
</g>
<g id="Layer_5">
	
		<linearGradient id="SVGID_00000181780284438809892930000013019423272681889678_" gradientUnits="userSpaceOnUse" x1="265.3099" y1="77.3872" x2="366.6432" y2="372.0538" gradientTransform="matrix(1 0 0 1 0 575.4633)">
		<stop  offset="0" style="stop-color:#78CBBD"/>
		<stop  offset="1" style="stop-color:#034137"/>
	</linearGradient>
	<polyline style="fill:url(#SVGID_00000181780284438809892930000013019423272681889678_);" points="331.2,818.8 325,750 306.2,725 
		287.5,712.5 287.5,793.8 300,825 	"/>
	
		<linearGradient id="SVGID_00000149381687599278610790000002508971076356800936_" gradientUnits="userSpaceOnUse" x1="425.4656" y1="168.5667" x2="415.6878" y2="249.4556" gradientTransform="matrix(1 0 0 1 0 575.4633)">
		<stop  offset="0" style="stop-color:#78CBBD"/>
		<stop  offset="1" style="stop-color:#034137"/>
	</linearGradient>
	<polyline style="fill:url(#SVGID_00000149381687599278610790000002508971076356800936_);" points="356.2,750 387.5,743.8 
		481.2,850 400,806.2 	"/>
	
		<linearGradient id="SVGID_00000000201400700177679660000015327118398337887880_" gradientUnits="userSpaceOnUse" x1="164.9206" y1="93.2186" x2="196.0317" y2="212.3296" gradientTransform="matrix(1 0 0 1 0 575.4633)">
		<stop  offset="0" style="stop-color:#78CBBD"/>
		<stop  offset="1" style="stop-color:#034137"/>
	</linearGradient>
	<polyline style="fill:url(#SVGID_00000000201400700177679660000015327118398337887880_);" points="275,681.2 256.2,718.8 
		175,768.8 87.5,781.2 87.5,762.5 200,668.8 	"/>
	
		<linearGradient id="SVGID_00000173150724126682808540000007441119342571074198_" gradientUnits="userSpaceOnUse" x1="149.538" y1="231.8582" x2="142.8713" y2="295.4138" gradientTransform="matrix(1 0 0 1 0 575.4633)">
		<stop  offset="0" style="stop-color:#78CBBD"/>
		<stop  offset="1" style="stop-color:#034137"/>
	</linearGradient>
	<polyline style="fill:url(#SVGID_00000173150724126682808540000007441119342571074198_);" points="262.5,887.5 187.5,856.2 
		81.2,850 25,837.5 150,818.8 250,843.8 	"/>
	
		<linearGradient id="SVGID_00000179645322865147503610000010459066568190568336_" gradientUnits="userSpaceOnUse" x1="468.7557" y1="286.7989" x2="458.7838" y2="381.864" gradientTransform="matrix(1 0 0 1 0 575.4633)">
		<stop  offset="0" style="stop-color:#78CBBD"/>
		<stop  offset="1" style="stop-color:#034137"/>
	</linearGradient>
	<polyline style="fill:url(#SVGID_00000179645322865147503610000010459066568190568336_);" points="450,962.5 381.2,943.8 
		487.5,881.2 543.8,900 537.5,912.5 512.5,918.8 	"/>
	
		<linearGradient id="SVGID_00000037654339186782134820000012160386253416989358_" gradientUnits="userSpaceOnUse" x1="766.1399" y1="354.0331" x2="756.2089" y2="448.7079" gradientTransform="matrix(1 0 0 1 0 575.4633)">
		<stop  offset="0" style="stop-color:#78CBBD"/>
		<stop  offset="1" style="stop-color:#034137"/>
	</linearGradient>
	<polyline style="fill:url(#SVGID_00000037654339186782134820000012160386253416989358_);" points="650,1000 750,950 800,950 
		856.2,975 868.8,987.5 800,1012.5 706.2,1025 	"/>
	
		<linearGradient id="SVGID_00000181769416509003429170000015178262801165366964_" gradientUnits="userSpaceOnUse" x1="854.8784" y1="237.0229" x2="962.5863" y2="353.3129" gradientTransform="matrix(1 0 0 1 0 575.4633)">
		<stop  offset="0" style="stop-color:#78CBBD"/>
		<stop  offset="1" style="stop-color:#034137"/>
	</linearGradient>
	<polyline style="fill:url(#SVGID_00000181769416509003429170000015178262801165366964_);" points="912.5,950 893.8,806.2 
		906.2,793.8 918.8,806.2 968.8,893.8 	"/>
	
		<linearGradient id="SVGID_00000015339432176994404840000003011221391172288645_" gradientUnits="userSpaceOnUse" x1="1047.8829" y1="208.4814" x2="1022.9942" y2="284.4816" gradientTransform="matrix(1 0 0 1 0 575.4633)">
		<stop  offset="0" style="stop-color:#78CBBD"/>
		<stop  offset="1" style="stop-color:#034137"/>
	</linearGradient>
	<polyline style="fill:url(#SVGID_00000015339432176994404840000003011221391172288645_);" points="1100,887.5 1043.8,831.2 
		975,743.8 1018.8,868.8 	"/>
	
		<linearGradient id="SVGID_00000028287468006924124770000012948924150595550084_" gradientUnits="userSpaceOnUse" x1="733.0077" y1="162.5263" x2="707.6743" y2="228.7485" gradientTransform="matrix(1 0 0 1 0 575.4633)">
		<stop  offset="0" style="stop-color:#78CBBD"/>
		<stop  offset="1" style="stop-color:#034137"/>
	</linearGradient>
	<polyline style="fill:url(#SVGID_00000028287468006924124770000012948924150595550084_);" points="731.2,806.2 768.8,800 
		843.8,787.5 737.5,756.2 625,681.2 	"/>
	
		<linearGradient id="SVGID_00000074422057124991523330000013845771101723663014_" gradientUnits="userSpaceOnUse" x1="1099.5471" y1="155.6741" x2="1064.098" y2="248.3392" gradientTransform="matrix(1 0 0 1 0 575.4633)">
		<stop  offset="0" style="stop-color:#78CBBD"/>
		<stop  offset="1" style="stop-color:#034137"/>
	</linearGradient>
	<polyline style="fill:url(#SVGID_00000074422057124991523330000013845771101723663014_);" points="1043.8,806.2 1156.2,731.2 
		1093.8,725 1050,712.5 	"/>
	
		<linearGradient id="SVGID_00000105386311624278931650000012447974260913171630_" gradientUnits="userSpaceOnUse" x1="619.3108" y1="202.7646" x2="586.1923" y2="289.3377" gradientTransform="matrix(1 0 0 1 0 575.4633)">
		<stop  offset="0" style="stop-color:#78CBBD"/>
		<stop  offset="1" style="stop-color:#034137"/>
	</linearGradient>
	<polyline style="fill:url(#SVGID_00000105386311624278931650000012447974260913171630_);" points="706.2,887.5 675,800 
		618.8,743.8 506.2,737.5 618.8,843.8 	"/>
	
		<linearGradient id="SVGID_00000106853540452459286960000009266790589628274058_" gradientUnits="userSpaceOnUse" x1="446.9133" y1="64.0296" x2="497.1356" y2="138.6962" gradientTransform="matrix(1 0 0 1 0 575.4633)">
		<stop  offset="0" style="stop-color:#78CBBD"/>
		<stop  offset="1" style="stop-color:#034137"/>
	</linearGradient>
	<polyline style="fill:url(#SVGID_00000106853540452459286960000009266790589628274058_);" points="418.8,725 537.5,650 
		531.2,637.5 481.2,650 456.2,681.2 	"/>
	
		<linearGradient id="SVGID_00000036952923571344172850000017647885997122357929_" gradientUnits="userSpaceOnUse" x1="746.9" y1="44.6472" x2="746.9" y2="121.5361" gradientTransform="matrix(1 0 0 1 0 575.4633)">
		<stop  offset="0" style="stop-color:#78CBBD"/>
		<stop  offset="1" style="stop-color:#034137"/>
	</linearGradient>
	<polyline style="fill:url(#SVGID_00000036952923571344172850000017647885997122357929_);" points="712.5,643.8 743.8,637.5 
		793.8,650 818.8,675 762.5,687.5 675,656.2 675,643.8 	"/>
</g>
<g id="Layer_6">
	
		<linearGradient id="SVGID_00000036211270232157629450000003239236619473866937_" gradientUnits="userSpaceOnUse" x1="537.6472" y1="142.6979" x2="425.6474" y2="590.6979" gradientTransform="matrix(1 0 0 1 0 575.4633)">
		<stop  offset="2.159827e-03" style="stop-color:#9FDAE5"/>
		<stop  offset="1" style="stop-color:#066653"/>
	</linearGradient>
	<polyline style="fill:url(#SVGID_00000036211270232157629450000003239236619473866937_);" points="487.5,881.2 481.2,850 
		481.2,737.5 531.2,812.5 543.8,900 	"/>
	
		<linearGradient id="SVGID_00000048481654035858767300000000866485010865788599_" gradientUnits="userSpaceOnUse" x1="234.7844" y1="121.7405" x2="273.3733" y2="255.6393" gradientTransform="matrix(1 0 0 1 0 575.4633)">
		<stop  offset="2.159827e-03" style="stop-color:#9FDAE5"/>
		<stop  offset="1" style="stop-color:#066653"/>
	</linearGradient>
	<polyline style="fill:url(#SVGID_00000048481654035858767300000000866485010865788599_);" points="300,825 287.5,793.8 
		287.5,712.5 275,681.2 256.2,718.8 212.5,787.5 	"/>
	
		<linearGradient id="SVGID_00000154396631689352870730000017022722969926069927_" gradientUnits="userSpaceOnUse" x1="80.3933" y1="173.8655" x2="70.3193" y2="262.1619" gradientTransform="matrix(1 0 0 1 0 575.4633)">
		<stop  offset="2.159827e-03" style="stop-color:#D2DAE5"/>
		<stop  offset="1" style="stop-color:#10BCC6"/>
	</linearGradient>
	<polyline style="fill:url(#SVGID_00000154396631689352870730000017022722969926069927_);" points="25,837.5 150,818.8 87.5,781.2 
		87.5,762.5 0,774.4 0,838.5 	"/>
	
		<linearGradient id="SVGID_00000106143862220737873420000005794313335519160503_" gradientUnits="userSpaceOnUse" x1="381.2" y1="368.3367" x2="381.2" y2="368.3367" gradientTransform="matrix(1 0 0 1 0 575.4633)">
		<stop  offset="2.159827e-03" style="stop-color:#D2DAE5"/>
		<stop  offset="1" style="stop-color:#10BCC6"/>
	</linearGradient>
	<path style="fill:url(#SVGID_00000106143862220737873420000005794313335519160503_);" d="M381.2,943.8"/>
	
		<linearGradient id="SVGID_00000039837861893264292170000004617105439556152719_" gradientUnits="userSpaceOnUse" x1="504.2418" y1="44.5886" x2="491.5067" y2="156.2074" gradientTransform="matrix(1 0 0 1 0 575.4633)">
		<stop  offset="2.159827e-03" style="stop-color:#D2DAE5"/>
		<stop  offset="1" style="stop-color:#10BCC6"/>
	</linearGradient>
	<polyline style="fill:url(#SVGID_00000039837861893264292170000004617105439556152719_);" points="575,643.8 518.8,693.8 
		506.2,737.5 443.8,737.5 418.8,725 537.5,650 	"/>
	
		<linearGradient id="SVGID_00000049185502348467694490000007991390677019544498_" gradientUnits="userSpaceOnUse" x1="745.8559" y1="58.4795" x2="731.2734" y2="186.2898" gradientTransform="matrix(1 0 0 1 0 575.4633)">
		<stop  offset="2.159827e-03" style="stop-color:#D2DAE5"/>
		<stop  offset="1" style="stop-color:#10BCC6"/>
	</linearGradient>
	<polyline style="fill:url(#SVGID_00000049185502348467694490000007991390677019544498_);" points="643.8,650 675,643.8 675,656.2 
		762.5,687.5 843.8,787.5 737.5,756.2 625,681.2 	"/>
	
		<linearGradient id="SVGID_00000008833134956605640100000003510241256679516322_" gradientUnits="userSpaceOnUse" x1="1020.9238" y1="111.0341" x2="1006.366" y2="238.6292" gradientTransform="matrix(1 0 0 1 0 575.4633)">
		<stop  offset="2.159827e-03" style="stop-color:#D2DAE5"/>
		<stop  offset="1" style="stop-color:#10BCC6"/>
	</linearGradient>
	<polyline style="fill:url(#SVGID_00000008833134956605640100000003510241256679516322_);" points="1043.8,831.2 975,743.8 
		993.8,706.2 1037.5,706.2 1050,712.5 	"/>
	
		<linearGradient id="SVGID_00000098915168742713608330000001190910269089112248_" gradientUnits="userSpaceOnUse" x1="993.035" y1="315.1181" x2="1015.5536" y2="363.1181" gradientTransform="matrix(1 0 0 1 0 575.4633)">
		<stop  offset="2.159827e-03" style="stop-color:#D2DAE5"/>
		<stop  offset="1" style="stop-color:#10BCC6"/>
	</linearGradient>
	<polyline style="fill:url(#SVGID_00000098915168742713608330000001190910269089112248_);" points="1100,887.5 1068.8,900 
		918.8,962.5 912.5,950 968.8,893.8 1018.8,868.8 	"/>
	
		<linearGradient id="SVGID_00000183970078279644751720000016293715326350820003_" gradientUnits="userSpaceOnUse" x1="703.8762" y1="242.7991" x2="777.2064" y2="399.1084" gradientTransform="matrix(1 0 0 1 0 575.4633)">
		<stop  offset="2.159827e-03" style="stop-color:#D2DAE5"/>
		<stop  offset="1" style="stop-color:#10BCC6"/>
	</linearGradient>
	<polyline style="fill:url(#SVGID_00000183970078279644751720000016293715326350820003_);" points="750,950 706.2,887.5 675,800 
		768.8,893.8 781.2,918.8 	"/>
	
		<linearGradient id="SVGID_00000155130138609338610130000012531910889576701863_" gradientUnits="userSpaceOnUse" x1="379.9" y1="229.8368" x2="294.1128" y2="572.9857" gradientTransform="matrix(1 0 0 1 0 575.4633)">
		<stop  offset="2.159827e-03" style="stop-color:#9FDAE5"/>
		<stop  offset="1" style="stop-color:#066653"/>
	</linearGradient>
	<polyline style="fill:url(#SVGID_00000155130138609338610130000012531910889576701863_);" points="381.2,943.8 412.5,856.2 
		331.2,818.8 331.2,875 	"/>
	
		<linearGradient id="SVGID_00000000904005971351429460000010793539532112947608_" gradientUnits="userSpaceOnUse" x1="890.5573" y1="36.9047" x2="856.187" y2="227.7195" gradientTransform="matrix(1 0 0 1 0 575.4633)">
		<stop  offset="2.159827e-03" style="stop-color:#D2DAE5"/>
		<stop  offset="1" style="stop-color:#10BCC6"/>
	</linearGradient>
	<polyline style="fill:url(#SVGID_00000000904005971351429460000010793539532112947608_);" points="843.8,750 818.8,675 850,675 
		937.5,687.5 862.5,706.2 	"/>
	
		<linearGradient id="SVGID_00000159447342196017481490000006122274898892928656_" gradientUnits="userSpaceOnUse" x1="239.3237" y1="72.2017" x2="232.6681" y2="109.1516" gradientTransform="matrix(1 0 0 1 0 575.4633)">
		<stop  offset="2.159827e-03" style="stop-color:#D2DAE5"/>
		<stop  offset="1" style="stop-color:#10BCC6"/>
	</linearGradient>
	<polyline style="fill:url(#SVGID_00000159447342196017481490000006122274898892928656_);" points="200,668.8 250,662.5 
		268.8,681.2 	"/>
	
		<linearGradient id="SVGID_00000124136309198282536830000012325869516790478509_" gradientUnits="userSpaceOnUse" x1="76.6511" y1="60.1002" x2="82.577" y2="134.1743" gradientTransform="matrix(1 0 0 1 0 575.4633)">
		<stop  offset="2.159827e-03" style="stop-color:#D2DAE5"/>
		<stop  offset="1" style="stop-color:#10BCC6"/>
	</linearGradient>
	<polyline style="fill:url(#SVGID_00000124136309198282536830000012325869516790478509_);" points="0,742.3 112.5,687.5 
		162.5,643.8 93.8,681.2 0,694.3 	"/>
</g>
<g id="Layer_7">
	
		<linearGradient id="SVGID_00000008868252376638260740000000537799429052188829_" gradientUnits="userSpaceOnUse" x1="168.9902" y1="138.7896" x2="173.5082" y2="195.2648" gradientTransform="matrix(1 0 0 1 0 575.4633)">
		<stop  offset="2.159827e-03" style="stop-color:#D2DAE5"/>
		<stop  offset="1" style="stop-color:#10BCC6"/>
	</linearGradient>
	<polyline style="fill:url(#SVGID_00000008868252376638260740000000537799429052188829_);" points="87.5,781.2 212.5,787.5 
		256.2,718.8 175,768.8 	"/>
	
		<linearGradient id="SVGID_00000116200087909091604260000009096631480796485512_" gradientUnits="userSpaceOnUse" x1="377.1896" y1="278.17" x2="456.597" y2="359.9478" gradientTransform="matrix(1 0 0 1 0 575.4633)">
		<stop  offset="2.159827e-03" style="stop-color:#D2DAE5"/>
		<stop  offset="1" style="stop-color:#10BCC6"/>
	</linearGradient>
	<polyline style="fill:url(#SVGID_00000116200087909091604260000009096631480796485512_);" points="381.2,943.8 412.5,856.2 
		487.5,881.2 	"/>
	
		<linearGradient id="SVGID_00000068635263583907486690000004034725404362387893_" gradientUnits="userSpaceOnUse" x1="586.8204" y1="311.5445" x2="605.1908" y2="395.6927" gradientTransform="matrix(1 0 0 1 0 575.4633)">
		<stop  offset="2.159827e-03" style="stop-color:#D2DAE5"/>
		<stop  offset="1" style="stop-color:#10BCC6"/>
	</linearGradient>
	<polyline style="fill:url(#SVGID_00000068635263583907486690000004034725404362387893_);" points="650,1000 650,925 543.8,900 
		537.5,912.5 625,962.5 	"/>
	
		<linearGradient id="SVGID_00000062161462328726528180000008137595838553571766_" gradientUnits="userSpaceOnUse" x1="897.7003" y1="203.9863" x2="884.0706" y2="253.1714" gradientTransform="matrix(1 0 0 1 0 575.4633)">
		<stop  offset="2.159827e-03" style="stop-color:#D2DAE5"/>
		<stop  offset="1" style="stop-color:#10BCC6"/>
	</linearGradient>
	<polyline style="fill:url(#SVGID_00000062161462328726528180000008137595838553571766_);" points="912.5,950 893.8,806.2 
		906.2,793.8 843.8,750 843.8,787.5 868.8,818.8 	"/>
	
		<linearGradient id="SVGID_00000013899302984671084970000015278034900672203965_" gradientUnits="userSpaceOnUse" x1="325.8691" y1="27.9134" x2="354.8351" y2="143.777" gradientTransform="matrix(1 0 0 1 0 575.4633)">
		<stop  offset="2.159827e-03" style="stop-color:#D2DAE5"/>
		<stop  offset="1" style="stop-color:#10BCC6"/>
	</linearGradient>
	<polyline style="fill:url(#SVGID_00000013899302984671084970000015278034900672203965_);" points="268.8,681.2 293.8,656.2 
		387.5,631.2 412.5,643.8 362.5,675 350,681.2 	"/>
	
		<linearGradient id="SVGID_00000021085822744774248250000005727280424302182289_" gradientUnits="userSpaceOnUse" x1="336.7286" y1="223.4191" x2="316.0619" y2="273.4192" gradientTransform="matrix(1 0 0 1 0 575.4633)">
		<stop  offset="0" style="stop-color:#78CBBD"/>
		<stop  offset="1" style="stop-color:#034137"/>
	</linearGradient>
	<polyline style="fill:url(#SVGID_00000021085822744774248250000005727280424302182289_);" points="331.2,875 300,825 331.2,818.8 	
		"/>
	
		<linearGradient id="SVGID_00000040543482936092419410000014500718069436959404_" gradientUnits="userSpaceOnUse" x1="804.3652" y1="335.1683" x2="803.1799" y2="383.7609" gradientTransform="matrix(1 0 0 1 0 575.4633)">
		<stop  offset="0" style="stop-color:#78CBBD"/>
		<stop  offset="1" style="stop-color:#034137"/>
	</linearGradient>
	<polyline style="fill:url(#SVGID_00000040543482936092419410000014500718069436959404_);" points="856.2,975 856.2,962.5 
		800,937.5 781.2,918.8 750,950 800,950 	"/>
	
		<linearGradient id="SVGID_00000128452953812953936110000015645426182182053514_" gradientUnits="userSpaceOnUse" x1="565.632" y1="120.5564" x2="560.8912" y2="188.1119" gradientTransform="matrix(1 0 0 1 0 575.4633)">
		<stop  offset="0" style="stop-color:#78CBBD"/>
		<stop  offset="1" style="stop-color:#034137"/>
	</linearGradient>
	<polyline style="fill:url(#SVGID_00000128452953812953936110000015645426182182053514_);" points="618.8,743.8 568.8,731.2 
		518.8,693.8 506.2,737.5 	"/>
	
		<linearGradient id="SVGID_00000116216583804811412750000012082140346159025075_" gradientUnits="userSpaceOnUse" x1="453.9274" y1="136.0785" x2="439.1127" y2="200.6711" gradientTransform="matrix(1 0 0 1 0 575.4633)">
		<stop  offset="0" style="stop-color:#78CBBD"/>
		<stop  offset="1" style="stop-color:#22743A"/>
	</linearGradient>
	<polyline style="fill:url(#SVGID_00000116216583804811412750000012082140346159025075_);" points="481.2,850 387.5,743.8 
		418.8,725 443.8,737.5 481.2,737.5 	"/>
</g>
<g id="Layer_8">
	
		<linearGradient id="SVGID_00000088816067293396056230000014678846150342495641_" gradientUnits="userSpaceOnUse" x1="808.701" y1="107.5052" x2="798.6271" y2="206.4682" gradientTransform="matrix(1 0 0 1 0 575.4633)">
		<stop  offset="0" style="stop-color:#78CBBD"/>
		<stop  offset="1" style="stop-color:#22743A"/>
	</linearGradient>
	<polyline style="fill:url(#SVGID_00000088816067293396056230000014678846150342495641_);" points="843.8,787.5 843.8,750 
		818.8,675 762.5,687.5 	"/>
	
		<linearGradient id="SVGID_00000024710752664090103050000015686763994990617511_" gradientUnits="userSpaceOnUse" x1="766.8273" y1="226.2411" x2="737.7902" y2="269.5003" gradientTransform="matrix(1 0 0 1 0 575.4633)">
		<stop  offset="2.159827e-03" style="stop-color:#D2DAE5"/>
		<stop  offset="1" style="stop-color:#10BCC6"/>
	</linearGradient>
	<polyline style="fill:url(#SVGID_00000024710752664090103050000015686763994990617511_);" points="781.2,918.8 768.8,893.8 
		675,800 731.2,806.2 768.8,800 762.5,831.2 	"/>
	
		<linearGradient id="SVGID_00000043457098205694849670000002363229694059753396_" gradientUnits="userSpaceOnUse" x1="681.4059" y1="304.0306" x2="707.48" y2="437.9565" gradientTransform="matrix(1 0 0 1 0 575.4633)">
		<stop  offset="0" style="stop-color:#78CBBD"/>
		<stop  offset="1" style="stop-color:#22743A"/>
	</linearGradient>
	<polyline style="fill:url(#SVGID_00000043457098205694849670000002363229694059753396_);" points="750,950 650,925 650,1000 	"/>
	
		<linearGradient id="SVGID_00000067946377746422229180000009547618430919105930_" gradientUnits="userSpaceOnUse" x1="887.0411" y1="349.6955" x2="887.6337" y2="405.9918" gradientTransform="matrix(1 0 0 1 0 575.4633)">
		<stop  offset="2.159827e-03" style="stop-color:#D2DAE5"/>
		<stop  offset="1" style="stop-color:#10BCC6"/>
	</linearGradient>
	<polyline style="fill:url(#SVGID_00000067946377746422229180000009547618430919105930_);" points="856.2,975 856.2,962.5 
		912.5,950 918.8,962.5 868.8,987.5 	"/>
	
		<linearGradient id="SVGID_00000133495615156466682800000018211621646005636481_" gradientUnits="userSpaceOnUse" x1="352.794" y1="130.1078" x2="341.2664" y2="186.0174" gradientTransform="matrix(1 0 0 1 0 575.4633)">
		<stop  offset="2.159827e-03" style="stop-color:#D2DAE5"/>
		<stop  offset="1" style="stop-color:#10BCC6"/>
	</linearGradient>
	<polyline style="fill:url(#SVGID_00000133495615156466682800000018211621646005636481_);" points="306.2,725 325,750 356.2,750 
		387.5,743.8 	"/>
</g>
</svg>
